SplineFontDB: 3.0
FontName: Caulixtla-Mono-Italic
FullName: Caulixtla Mono Italic
FamilyName: Caulixtla Mono Italic
Weight: Book
Copyright: Copyright (c) 2015-2017 Belleve Invis. OFL, reserved name "Iosevka"
Version: 0.0.1; ttfautohint (v1.7.9-c794)
ItalicAngle: 0
UnderlinePosition: -75
UnderlineWidth: 50
Ascent: 800
Descent: 200
InvalidEm: 0
sfntRevision: 0x00010000
LayerCount: 2
Layer: 0 1 "Back" 1
Layer: 1 1 "Fore" 0
XUID: [1021 590 -1373747595 23739]
StyleMap: 0x0040
FSType: 0
OS2Version: 4
OS2_WeightWidthSlopeOnly: 0
OS2_UseTypoMetrics: 1
CreationTime: 1479708639
ModificationTime: 1527986068
PfmFamily: 17
TTFWeight: 400
TTFWidth: 5
LineGap: 67
VLineGap: 0
Panose: 2 0 5 9 0 0 0 0 0 0
OS2TypoAscent: 977
OS2TypoAOffset: 0
OS2TypoDescent: -272
OS2TypoDOffset: 0
OS2TypoLinegap: 0
OS2WinAscent: 977
OS2WinAOffset: 0
OS2WinDescent: 272
OS2WinDOffset: 0
HheadAscent: 977
HheadAOffset: 0
HheadDescent: -205
HheadDOffset: 0
OS2SubXSize: 665
OS2SubYSize: 716
OS2SubXOff: 0
OS2SubYOff: 143
OS2SupXSize: 0
OS2SupYSize: 0
OS2SupXOff: 0
OS2SupYOff: 0
OS2StrikeYSize: 51
OS2StrikeYPos: 265
OS2CapHeight: 735
OS2XHeight: 530
OS2FamilyClass: 2057
OS2Vendor: 'CYEL'
OS2CodePages: 2000011f.c4000000
OS2UnicodeRanges: e00002ff.5240fcfb.00040000.00000000
Lookup: 1 0 0 "Single Substitution lookup 0" { "Single Substitution lookup 0 subtable"  } []
Lookup: 1 0 0 "Single Substitution lookup 1" { "Single Substitution lookup 1 subtable"  } []
Lookup: 1 0 0 "Single Substitution lookup 2" { "Single Substitution lookup 2 subtable"  } []
Lookup: 6 0 0 "'ccmp' Composici+APMA-n/descomposici+APMA-n de glifos lookup 3" { "'ccmp' Composici+APMA-n/descomposici+APMA-n de glifos lookup 3 subtable"  } ['ccmp' ('DFLT' <'dflt' > 'cyrl' <'BGR ' 'MKD ' 'SRB ' 'dflt' > 'grek' <'dflt' > 'hani' <'dflt' > 'kana' <'dflt' > 'latn' <'dflt' > ) ]

StartChar: exclam
Encoding: 33 33 2
Width: 500
GlyphClass: 2
Flags: W
AnchorPoint: "Anclaje-5" 434 0 basechar 0
AnchorPoint: "Anclaje-4" 434 735 basechar 0
AnchorPoint: "Anclaje-3" 250 367 basechar 0
AnchorPoint: "Anclaje-2" 250 382 basechar 0
AnchorPoint: "Anclaje-1" 250 0 basechar 0
AnchorPoint: "Anclaje-0" 250 735 basechar 0
LayerCount: 2
Fore
SplineSet
210 260 m 1,0,-1
 210 735 l 1,1,-1
 290 735 l 1,2,-1
 290 260 l 1,3,-1
 210 260 l 1,0,-1
250 -8 m 256,4,5
 228 -8 228 -8 211 1 c 0,6,7
 197 10 197 10 189 24 c 0,8,9
 179 40 179 40 180 63 c 0,10,11
 179 85 179 85 189 101 c 0,12,13
 197 115 197 115 211 124 c 0,14,15
 228 133 228 133 250 133 c 256,16,17
 272 133 272 133 289 124 c 0,18,19
 303 115 303 115 311 101 c 0,20,21
 320 86 320 86 321 63 c 0,22,23
 320 39 320 39 311 24 c 0,24,25
 303 10 303 10 289 1 c 0,26,27
 272 -8 272 -8 250 -8 c 256,4,5
EndSplineSet
Validated: 33
EndChar

StartChar: quotedbl
Encoding: 34 34 3
Width: 500
GlyphClass: 2
Flags: W
LayerCount: 2
Fore
SplineSet
388 451 m 1,0,-1
 312 451 l 1,1,2
 312 456 312 456 312 460 c 2,3,-1
 311 470 l 2,4,5
 311 473 311 473 311 475 c 2,6,-1
 311 485 l 2,7,8
 311 490 311 490 310 495 c 2,9,-1
 310 505 l 2,10,11
 310 510 310 510 310 515 c 2,12,-1
 310 525 l 2,13,14
 309 527 309 527 309 530 c 2,15,-1
 309 539 l 2,16,17
 309 544 309 544 309 549 c 2,18,-1
 309 559 l 2,19,20
 308 572 308 572 308 584 c 2,21,-1
 308 594 l 2,22,23
 308 598 308 598 308 604 c 2,24,-1
 307 614 l 2,25,26
 307 618 307 618 307 623 c 2,27,-1
 307 633 l 2,28,29
 307 635 307 635 307 638 c 2,30,-1
 307 648 l 2,31,32
 306 710 306 710 306 772 c 1,33,-1
 394 772 l 1,34,35
 394 683 394 683 392 594 c 2,36,-1
 392 584 l 2,37,38
 392 579 392 579 392 574 c 0,39,40
 392 567 392 567 391 559 c 2,41,-1
 391 549 l 2,42,43
 391 545 391 545 391 539 c 2,44,-1
 391 530 l 2,45,46
 391 527 391 527 390 525 c 2,47,-1
 390 514 l 2,48,49
 390 510 390 510 390 505 c 2,50,-1
 390 495 l 2,51,52
 389 490 389 490 389 485 c 2,53,-1
 389 475 l 2,54,55
 389 472 389 472 389 470 c 2,56,-1
 388 460 l 2,57,58
 388 455 388 455 388 451 c 1,0,-1
188 451 m 1,59,-1
 112 451 l 1,60,61
 112 456 112 456 112 460 c 2,62,-1
 111 470 l 2,63,64
 111 473 111 473 111 475 c 2,65,-1
 111 485 l 2,66,67
 111 490 111 490 110 495 c 2,68,-1
 110 505 l 2,69,70
 110 510 110 510 110 515 c 2,71,-1
 110 525 l 2,72,73
 109 527 109 527 109 530 c 2,74,-1
 109 539 l 2,75,76
 109 544 109 544 109 549 c 2,77,-1
 109 559 l 2,78,79
 108 572 108 572 108 584 c 2,80,-1
 108 594 l 2,81,82
 108 598 108 598 108 604 c 2,83,-1
 107 614 l 2,84,85
 107 618 107 618 107 623 c 2,86,-1
 107 633 l 2,87,88
 107 635 107 635 107 638 c 2,89,-1
 107 648 l 2,90,91
 106 710 106 710 106 772 c 1,92,-1
 194 772 l 1,93,94
 194 683 194 683 192 594 c 2,95,-1
 192 584 l 2,96,97
 192 579 192 579 192 574 c 0,98,99
 192 567 192 567 191 559 c 2,100,-1
 191 549 l 2,101,102
 191 545 191 545 191 539 c 2,103,-1
 191 530 l 2,104,105
 191 527 191 527 190 525 c 2,106,-1
 190 514 l 2,107,108
 190 510 190 510 190 505 c 2,109,-1
 190 495 l 2,110,111
 189 490 189 490 189 485 c 2,112,-1
 189 475 l 2,113,114
 189 472 189 472 189 470 c 2,115,-1
 188 460 l 2,116,117
 188 455 188 455 188 451 c 1,59,-1
EndSplineSet
Validated: 1
EndChar

StartChar: numbersign
Encoding: 35 35 4
Width: 500
GlyphClass: 2
Flags: W
LayerCount: 2
Fore
SplineSet
114 -88 m 1,0,-1
 114 148 l 1,1,-1
 30 148 l 1,2,-1
 30 220 l 1,3,-1
 114 220 l 1,4,-1
 114 510 l 1,5,-1
 30 510 l 1,6,-1
 30 582 l 1,7,-1
 114 582 l 1,8,-1
 114 818 l 1,9,-1
 194 818 l 1,10,-1
 194 582 l 1,11,-1
 306 582 l 1,12,-1
 306 818 l 1,13,-1
 386 818 l 1,14,-1
 386 582 l 1,15,-1
 470 582 l 1,16,-1
 470 510 l 1,17,-1
 386 510 l 1,18,-1
 386 220 l 1,19,-1
 470 220 l 1,20,-1
 470 148 l 1,21,-1
 386 148 l 1,22,-1
 386 -88 l 1,23,-1
 306 -88 l 1,24,-1
 306 148 l 1,25,-1
 194 148 l 1,26,-1
 194 -88 l 1,27,-1
 114 -88 l 1,0,-1
194 220 m 1,28,-1
 306 220 l 1,29,-1
 306 510 l 1,30,-1
 194 510 l 1,31,-1
 194 220 l 1,28,-1
EndSplineSet
Validated: 513
Substitution2: "'ss09' Style Set 9 lookup 51 subtable" numbersign.ss09
Substitution2: "'ss11' Style Set 11 lookup 50 subtable" numbersign.ss11
EndChar

StartChar: dollar
Encoding: 36 36 5
Width: 500
GlyphClass: 2
Flags: W
AnchorPoint: "Anclaje-5" 434 0 basechar 0
AnchorPoint: "Anclaje-4" 434 735 basechar 0
AnchorPoint: "Anclaje-3" 250 367 basechar 0
AnchorPoint: "Anclaje-2" 250 382 basechar 0
AnchorPoint: "Anclaje-1" 250 0 basechar 0
AnchorPoint: "Anclaje-0" 250 735 basechar 0
LayerCount: 2
Fore
SplineSet
210 -103 m 1,0,-1
 210 31 l 1,1,2
 169 36 169 36 137 55 c 0,3,4
 101 76 101 76 80 111 c 0,5,6
 61 145 61 145 61 184 c 0,7,8
 61 187 61 187 61 192 c 1,9,-1
 141 199 l 2,10,11
 140 195 140 195 140 190 c 0,12,13
 140 167 140 167 151 148 c 0,14,15
 163 128 163 128 184 116 c 0,16,17
 197 108 197 108 213 104 c 1,18,-1
 213 341 l 1,19,20
 197 349 197 349 185 357 c 0,21,22
 120 393 120 393 92 444 c 0,23,24
 66 488 66 488 66 537 c 0,25,26
 66 585 66 585 89 624 c 0,27,28
 109 659 109 659 146 681 c 0,29,30
 174 697 174 697 210 703 c 1,31,-1
 210 838 l 1,32,-1
 290 838 l 1,33,-1
 290 704 l 1,34,35
 331 699 331 699 363 680 c 0,36,37
 399 659 399 659 420 624 c 0,38,39
 439 590 439 590 439 551 c 0,40,41
 439 548 439 548 439 543 c 1,42,-1
 359 536 l 2,43,44
 360 540 360 540 360 545 c 0,45,46
 360 568 360 568 349 587 c 0,47,48
 337 607 337 607 316 619 c 0,49,50
 303 627 303 627 287 631 c 1,51,-1
 287 394 l 1,52,53
 303 386 303 386 315 378 c 0,54,55
 380 342 380 342 408 291 c 0,56,57
 434 247 434 247 434 198 c 0,58,59
 434 150 434 150 411 111 c 0,60,61
 391 76 391 76 354 54 c 0,62,63
 326 38 326 38 290 32 c 1,64,-1
 290 -103 l 1,65,-1
 210 -103 l 1,0,-1
213 433 m 1,66,-1
 213 629 l 1,67,68
 201 625 201 625 191 620 c 0,69,70
 170 607 170 607 159 587 c 0,71,72
 146 565 146 565 146 538 c 128,-1,73
 146 511 146 511 160 485 c 0,74,75
 177 456 177 456 213 433 c 1,66,-1
287 106 m 1,76,77
 299 110 299 110 309 115 c 0,78,79
 330 128 330 128 341 148 c 0,80,81
 354 170 354 170 354 197 c 128,-1,82
 354 224 354 224 340 250 c 0,83,84
 323 279 323 279 287 302 c 1,85,-1
 287 106 l 1,76,77
EndSplineSet
Validated: 513
Substitution2: "'ss11' Style Set 11 lookup 59 subtable" dollar.ss11
Substitution2: "'ss09' Style Set 9 lookup 58 subtable" dollar.ss09
EndChar

StartChar: percent
Encoding: 37 37 6
Width: 500
GlyphClass: 2
Flags: W
LayerCount: 2
Fore
SplineSet
66 515 m 1,0,-1
 66 735 l 1,1,-1
 177 735 l 1,2,-1
 177 515 l 1,3,-1
 66 515 l 1,0,-1
66 0 m 1,4,-1
 347 735 l 1,5,-1
 434 735 l 1,6,-1
 153 0 l 1,7,-1
 66 0 l 1,4,-1
323 0 m 1,8,-1
 323 221 l 1,9,-1
 434 221 l 1,10,-1
 434 0 l 1,11,-1
 323 0 l 1,8,-1
EndSplineSet
Validated: 1
EndChar

StartChar: ampersand
Encoding: 38 38 7
Width: 500
GlyphClass: 2
Flags: W
LayerCount: 2
Fore
SplineSet
250 -8 m 256,0,1
 191 -8 191 -8 148 17 c 0,2,3
 108 40 108 40 86 80 c 0,4,5
 58 127 58 127 58 188 c 0,6,7
 58 244 58 244 88 297 c 0,8,9
 108 332 108 332 157 376 c 1,10,11
 144 394 144 394 135 410 c 0,12,13
 85 498 85 498 84 579 c 0,14,15
 85 634 85 634 108 673 c 0,16,17
 126 706 126 706 158 724 c 0,18,19
 191 743 191 743 236 743 c 0,20,21
 282 743 282 743 314 724 c 0,22,23
 346 706 346 706 365 673 c 0,24,25
 388 633 388 633 388 580 c 0,26,27
 388 525 388 525 358 473 c 0,28,29
 333 429 333 429 260 369 c 1,30,31
 288 332 288 332 327 288 c 0,32,33
 346 265 346 265 362 245 c 1,34,-1
 362 368 l 1,35,-1
 442 368 l 1,36,-1
 442 195 l 2,37,38
 442 164 442 164 436 137 c 1,39,40
 471 68 471 68 471 0 c 1,41,-1
 391 0 l 1,42,43
 391 22 391 22 387 43 c 1,44,45
 371 28 371 28 352 17 c 0,46,47
 309 -8 309 -8 250 -8 c 256,0,1
218 428 m 1,48,49
 268 472 268 472 286 504 c 0,50,51
 308 542 308 542 308 581 c 0,52,53
 308 614 308 614 294 637 c 0,54,55
 285 654 285 654 270 662.5 c 128,-1,56
 255 671 255 671 236 671 c 256,57,58
 217 671 217 671 202.5 662.5 c 128,-1,59
 188 654 188 654 178 637 c 0,60,61
 165 613 165 613 164 579 c 0,62,63
 165 519 165 519 207 447 c 0,64,65
 212 438 212 438 218 428 c 1,48,49
250 64 m 0,66,67
 282 64 282 64 306 78 c 0,68,69
 329 91 329 91 344 116 c 0,70,71
 349 125 349 125 352 135 c 1,72,73
 327 178 327 178 257 255 c 0,74,75
 226 288 226 288 202 318 c 1,76,77
 173 290 173 290 160 268 c 0,78,79
 138 228 138 228 138 187.5 c 128,-1,80
 138 147 138 147 156 116 c 0,81,82
 170 92 170 92 193.5 78 c 128,-1,83
 217 64 217 64 250 64 c 0,66,67
EndSplineSet
Validated: 1
EndChar

StartChar: quotesingle
Encoding: 39 39 8
Width: 500
GlyphClass: 2
Flags: W
LayerCount: 2
Fore
SplineSet
288 451 m 1,0,-1
 212 451 l 1,1,2
 212 456 212 456 212 460 c 2,3,-1
 211 470 l 2,4,5
 211 473 211 473 211 475 c 2,6,-1
 211 485 l 2,7,8
 211 490 211 490 210 495 c 2,9,-1
 210 505 l 2,10,11
 210 510 210 510 210 515 c 2,12,-1
 210 525 l 2,13,14
 209 527 209 527 209 530 c 2,15,-1
 209 539 l 2,16,17
 209 544 209 544 209 549 c 2,18,-1
 209 559 l 2,19,20
 208 572 208 572 208 584 c 2,21,-1
 208 594 l 2,22,23
 208 598 208 598 208 604 c 2,24,-1
 207 614 l 2,25,26
 207 618 207 618 207 623 c 2,27,-1
 207 633 l 2,28,29
 207 635 207 635 207 638 c 2,30,-1
 207 648 l 2,31,32
 206 710 206 710 206 772 c 1,33,-1
 294 772 l 1,34,35
 294 683 294 683 292 594 c 2,36,-1
 292 584 l 2,37,38
 292 579 292 579 292 574 c 0,39,40
 292 567 292 567 291 559 c 2,41,-1
 291 549 l 2,42,43
 291 545 291 545 291 539 c 2,44,-1
 291 530 l 2,45,46
 291 527 291 527 290 525 c 2,47,-1
 290 514 l 2,48,49
 290 510 290 510 290 505 c 2,50,-1
 290 495 l 2,51,52
 289 490 289 490 289 485 c 2,53,-1
 289 475 l 2,54,55
 289 472 289 472 289 470 c 2,56,-1
 288 460 l 2,57,58
 288 455 288 455 288 451 c 1,0,-1
EndSplineSet
Validated: 1
EndChar

StartChar: parenleft
Encoding: 40 40 9
Width: 500
GlyphClass: 2
Flags: W
LayerCount: 2
Fore
SplineSet
397 -188 m 1,0,1
 290 -120 290 -120 227 -10 c 0,2,3
 141 139 141 139 140 359 c 2,4,-1
 140 371 l 2,5,6
 141 591 141 591 227 740 c 0,7,8
 290 850 290 850 397 918 c 1,9,-1
 440 857 l 1,10,11
 351 798 351 798 298 706 c 0,12,13
 221 572 221 572 220 371 c 2,14,-1
 220 359 l 2,15,16
 221 158 221 158 298 24 c 0,17,18
 351 -68 351 -68 440 -127 c 1,19,-1
 397 -188 l 1,0,1
EndSplineSet
Validated: 1
EndChar

StartChar: parenright
Encoding: 41 41 10
Width: 500
GlyphClass: 2
Flags: W
LayerCount: 2
Fore
SplineSet
103 -188 m 1,0,-1
 60 -127 l 1,1,2
 149 -68 149 -68 202 24 c 0,3,4
 279 158 279 158 280 359 c 2,5,-1
 280 371 l 2,6,7
 279 572 279 572 202 706 c 0,8,9
 149 798 149 798 60 857 c 1,10,-1
 103 918 l 1,11,12
 210 850 210 850 273 740 c 0,13,14
 359 591 359 591 360 371 c 2,15,-1
 360 359 l 2,16,17
 359 139 359 139 273 -10 c 0,18,19
 210 -120 210 -120 103 -188 c 1,0,-1
EndSplineSet
Validated: 1
EndChar

StartChar: asterisk
Encoding: 42 42 11
Width: 500
GlyphClass: 2
Flags: W
LayerCount: 2
Fore
SplineSet
341 444 m 1,0,-1
 250 580 l 1,1,-1
 159 444 l 1,2,-1
 94 487 l 1,3,-1
 199 620 l 1,4,-1
 38 666 l 1,5,-1
 63 735 l 1,6,-1
 216 679 l 1,7,-1
 210 846 l 1,8,-1
 290 846 l 1,9,-1
 284 679 l 1,10,-1
 437 735 l 1,11,-1
 462 666 l 1,12,-1
 301 620 l 1,13,-1
 406 487 l 1,14,-1
 341 444 l 1,0,-1
EndSplineSet
Validated: 513
Substitution2: "'ss10' Style Set 10 lookup 49 subtable" asterisk.ss10
Substitution2: "'ss11' Style Set 11 lookup 48 subtable" asterisk.ss11
EndChar

StartChar: plus
Encoding: 43 43 12
Width: 500
GlyphClass: 2
Flags: W
AnchorPoint: "Anclaje-5" 434 0 basechar 0
AnchorPoint: "Anclaje-4" 434 530 basechar 0
AnchorPoint: "Anclaje-3" 250 365 basechar 0
AnchorPoint: "Anclaje-2" 250 373 basechar 0
AnchorPoint: "Anclaje-1" 250 162 basechar 0
AnchorPoint: "Anclaje-0" 250 567 basechar 0
LayerCount: 2
Fore
SplineSet
290 163 m 1,0,-1
 210 163 l 1,1,-1
 210 329 l 1,2,-1
 66 329 l 1,3,-1
 66 401 l 1,4,-1
 210 401 l 1,5,-1
 210 567 l 1,6,-1
 290 567 l 1,7,-1
 290 401 l 1,8,-1
 434 401 l 1,9,-1
 434 329 l 1,10,-1
 290 329 l 1,11,-1
 290 163 l 1,0,-1
EndSplineSet
Validated: 1
EndChar

StartChar: comma
Encoding: 44 44 13
Width: 500
GlyphClass: 2
Flags: W
LayerCount: 2
Fore
SplineSet
229 -205 m 1,0,-1
 166 -164 l 1,1,2
 183 -140 183 -140 196 -118 c 0,3,4
 228 -63 228 -63 241 -8 c 1,5,6
 222 -6 222 -6 207 2.5 c 128,-1,7
 192 11 192 11 182 27 c 0,8,9
 172 45 172 45 172 70 c 128,-1,10
 172 95 172 95 182 113 c 0,11,12
 192 129 192 129 207 138 c 0,13,14
 225 148 225 148 250 148 c 256,15,16
 275 148 275 148 293 138 c 0,17,18
 308 129 308 129 318 113 c 0,19,20
 327 96 327 96 328 70 c 0,21,22
 328 -41 328 -41 264 -150 c 0,23,24
 249 -177 249 -177 229 -205 c 1,0,-1
EndSplineSet
Validated: 1
EndChar

StartChar: hyphen
Encoding: 45 45 14
Width: 500
GlyphClass: 2
Flags: W
LayerCount: 2
Fore
SplineSet
66 329 m 1,0,-1
 66 401 l 1,1,-1
 434 401 l 1,2,-1
 434 329 l 1,3,-1
 66 329 l 1,0,-1
EndSplineSet
Validated: 1
EndChar

StartChar: period
Encoding: 46 46 15
Width: 500
GlyphClass: 2
Flags: W
LayerCount: 2
Fore
SplineSet
250 -8 m 256,0,1
 225 -8 225 -8 207 2 c 0,2,3
 192 11 192 11 182 27 c 0,4,5
 172 45 172 45 172 70 c 128,-1,6
 172 95 172 95 182 113 c 0,7,8
 192 129 192 129 207 138 c 0,9,10
 225 148 225 148 250 148 c 256,11,12
 275 148 275 148 293 138 c 0,13,14
 308 129 308 129 318 113 c 0,15,16
 328 95 328 95 328 70 c 128,-1,17
 328 45 328 45 318 27 c 0,18,19
 308 11 308 11 293 2 c 0,20,21
 275 -8 275 -8 250 -8 c 256,0,1
EndSplineSet
Validated: 1
EndChar

StartChar: slash
Encoding: 47 47 16
Width: 500
GlyphClass: 2
Flags: W
LayerCount: 2
Fore
SplineSet
61 -168 m 1,0,-1
 357 898 l 1,1,-1
 439 898 l 1,2,-1
 143 -168 l 1,3,-1
 61 -168 l 1,0,-1
EndSplineSet
Validated: 1
EndChar

StartChar: zero
Encoding: 48 48 17
Width: 500
GlyphClass: 2
Flags: W
AnchorPoint: "Anclaje-5" 434 0 basechar 0
AnchorPoint: "Anclaje-4" 434 735 basechar 0
AnchorPoint: "Anclaje-3" 250 367 basechar 0
AnchorPoint: "Anclaje-2" 250 382 basechar 0
AnchorPoint: "Anclaje-1" 250 0 basechar 0
AnchorPoint: "Anclaje-0" 250 735 basechar 0
LayerCount: 2
Fore
SplineSet
250 -8 m 256,0,1
 192 -8 192 -8 149.5 16.5 c 128,-1,2
 107 41 107 41 82 85 c 0,3,4
 50 140 50 140 50 220 c 2,5,-1
 50 515 l 2,6,7
 50 595 50 595 82 650 c 0,8,9
 107 694 107 694 149.5 718.5 c 128,-1,10
 192 743 192 743 250 743 c 256,11,12
 308 743 308 743 350.5 718.5 c 128,-1,13
 393 694 393 694 418 650 c 0,14,15
 450 595 450 595 450 515 c 2,16,-1
 450 220 l 2,17,18
 450 140 450 140 418 85 c 0,19,20
 393 41 393 41 350.5 16.5 c 128,-1,21
 308 -8 308 -8 250 -8 c 256,0,1
250 64 m 256,22,23
 282 64 282 64 306 78 c 0,24,25
 331 93 331 93 347 121 c 0,26,27
 370 160 370 160 370 220 c 2,28,-1
 370 464 l 1,29,-1
 139 154 l 1,30,31
 144 136 144 136 153 121 c 0,32,33
 169 93 169 93 194 78 c 0,34,35
 218 64 218 64 250 64 c 256,22,23
130 271 m 1,36,-1
 361 581 l 1,37,38
 356 599 356 599 347 614 c 0,39,40
 331 642 331 642 306 657 c 0,41,42
 282 671 282 671 250 671 c 256,43,44
 218 671 218 671 194 657 c 0,45,46
 169 642 169 642 153 614 c 0,47,48
 130 575 130 575 130 515 c 2,49,-1
 130 271 l 1,36,-1
EndSplineSet
Validated: 513
Substitution2: "'ss11' Style Set 11 lookup 36 subtable" zero.ss11
Substitution2: "'ss09' Style Set 9 lookup 35 subtable" zero.ss09
Substitution2: "'ss10' Style Set 10 lookup 34 subtable" zero.ss10
EndChar

StartChar: one
Encoding: 49 49 18
Width: 500
GlyphClass: 2
Flags: W
AnchorPoint: "Anclaje-5" 434 0 basechar 0
AnchorPoint: "Anclaje-4" 434 735 basechar 0
AnchorPoint: "Anclaje-3" 250 367 basechar 0
AnchorPoint: "Anclaje-2" 250 382 basechar 0
AnchorPoint: "Anclaje-1" 250 0 basechar 0
AnchorPoint: "Anclaje-0" 250 735 basechar 0
LayerCount: 2
Fore
SplineSet
85 0 m 1,0,-1
 85 72 l 1,1,-1
 220 72 l 1,2,-1
 220 645 l 1,3,-1
 92 559 l 1,4,-1
 48 619 l 1,5,-1
 220 735 l 1,6,-1
 300 735 l 1,7,-1
 300 72 l 1,8,-1
 435 72 l 1,9,-1
 435 0 l 1,10,-1
 85 0 l 1,0,-1
EndSplineSet
Validated: 513
Substitution2: "Single Substitution lookup 38 subtable" one.cv51
Substitution2: "'ss11' Style Set 11 lookup 37 subtable" one.ss11
EndChar

StartChar: two
Encoding: 50 50 19
Width: 500
GlyphClass: 2
Flags: W
AnchorPoint: "Anclaje-5" 434 0 basechar 0
AnchorPoint: "Anclaje-4" 434 735 basechar 0
AnchorPoint: "Anclaje-3" 250 367 basechar 0
AnchorPoint: "Anclaje-2" 250 382 basechar 0
AnchorPoint: "Anclaje-1" 250 0 basechar 0
AnchorPoint: "Anclaje-0" 250 735 basechar 0
LayerCount: 2
Fore
SplineSet
66 0 m 1,0,-1
 66 1 l 2,1,2
 66 139 66 139 110 215 c 0,3,4
 144 274 144 274 234 350 c 0,5,6
 311 415 311 415 336 458 c 0,7,8
 362 503 362 503 362 549 c 0,9,10
 362 589 362 589 344 619 c 0,11,12
 331 644 331 644 307 657.5 c 128,-1,13
 283 671 283 671 250 671 c 0,14,15
 218 671 218 671 194 657 c 0,16,17
 171 644 171 644 156 619 c 0,18,19
 143 595 143 595 139 566 c 1,20,-1
 61 580 l 1,21,22
 66 621 66 621 86 656 c 0,23,24
 109 695 109 695 148 718 c 0,25,26
 191 743 191 743 250 743 c 0,27,28
 310 743 310 743 352 718 c 0,29,30
 391 696 391 696 415 656 c 0,31,32
 442 608 442 608 442 549 c 0,33,34
 442 489 442 489 408 431 c 0,35,36
 381 382 381 382 297 308 c 0,37,38
 215 235 215 235 184 183 c 0,39,40
 159 138 159 138 150 72 c 1,41,-1
 354 72 l 1,42,-1
 354 145 l 1,43,-1
 434 145 l 1,44,-1
 434 0 l 1,45,-1
 66 0 l 1,0,-1
EndSplineSet
Validated: 1
EndChar

StartChar: three
Encoding: 51 51 20
Width: 500
GlyphClass: 2
Flags: W
AnchorPoint: "Anclaje-5" 434 0 basechar 0
AnchorPoint: "Anclaje-4" 434 735 basechar 0
AnchorPoint: "Anclaje-3" 250 367 basechar 0
AnchorPoint: "Anclaje-2" 250 382 basechar 0
AnchorPoint: "Anclaje-1" 250 0 basechar 0
AnchorPoint: "Anclaje-0" 250 735 basechar 0
LayerCount: 2
Fore
SplineSet
250 -8 m 0,0,1
 188 -8 188 -8 144 18 c 0,2,3
 103 41 103 41 78 84 c 0,4,5
 59 116 59 116 53 155 c 1,6,-1
 131 172 l 1,7,8
 135 145 135 145 148 120 c 0,9,10
 164 93 164 93 189 79 c 0,11,12
 215 64 215 64 250 64 c 256,13,14
 285 64 285 64 310 78.5 c 128,-1,15
 335 93 335 93 351 120 c 0,16,17
 370 154 370 154 370 196 c 128,-1,18
 370 238 370 238 350 272 c 0,19,20
 331 306 331 306 297 326 c 0,21,22
 255 350 255 350 173 350 c 1,23,-1
 173 422 l 1,24,25
 250 422 250 422 289 444 c 0,26,27
 319 462 319 462 336.5 492 c 128,-1,28
 354 522 354 522 354 558 c 128,-1,29
 354 594 354 594 338 623 c 0,30,31
 324 646 324 646 303 658 c 0,32,33
 281 671 281 671 251 671 c 256,34,35
 221 671 221 671 199 658 c 0,36,37
 178 646 178 646 164 623 c 0,38,39
 150 598 150 598 148 568 c 1,40,-1
 69 580 l 1,41,42
 73 624 73 624 94 659 c 0,43,44
 116 697 116 697 153 719 c 0,45,46
 194 743 194 743 251 743 c 0,47,48
 307 743 307 743 348 719 c 0,49,50
 385 698 385 698 408 660 c 0,51,52
 434 613 434 613 434 559 c 0,53,54
 434 509 434 509 410 467 c 128,-1,55
 386 425 386 425 343 400 c 0,56,57
 329 392 329 392 312 386 c 1,58,59
 334 379 334 379 351 370 c 0,60,61
 398 342 398 342 423 297 c 0,62,63
 450 251 450 251 450 195 c 0,64,65
 450 134 450 134 421 83 c 0,66,67
 397 42 397 42 356 18 c 0,68,69
 311 -8 311 -8 250 -8 c 0,0,1
EndSplineSet
Validated: 513
Substitution2: "'ss10' Style Set 10 lookup 40 subtable" three.ss10
Substitution2: "'ss11' Style Set 11 lookup 39 subtable" three.ss11
EndChar

StartChar: four
Encoding: 52 52 21
Width: 500
GlyphClass: 2
Flags: W
AnchorPoint: "Anclaje-5" 434 0 basechar 0
AnchorPoint: "Anclaje-4" 434 735 basechar 0
AnchorPoint: "Anclaje-3" 250 367 basechar 0
AnchorPoint: "Anclaje-2" 250 382 basechar 0
AnchorPoint: "Anclaje-1" 250 0 basechar 0
AnchorPoint: "Anclaje-0" 250 735 basechar 0
LayerCount: 2
Fore
SplineSet
245 0 m 1,0,-1
 245 72 l 1,1,-1
 290 72 l 1,2,-1
 290 222 l 1,3,-1
 50 222 l 1,4,-1
 50 294 l 1,5,-1
 272 735 l 1,6,-1
 370 735 l 1,7,-1
 370 294 l 1,8,-1
 434 294 l 1,9,-1
 434 222 l 1,10,-1
 370 222 l 1,11,-1
 370 72 l 1,12,-1
 415 72 l 1,13,-1
 415 0 l 1,14,-1
 245 0 l 1,0,-1
129 294 m 1,15,-1
 290 294 l 1,16,-1
 290 613 l 1,17,-1
 129 294 l 1,15,-1
EndSplineSet
Validated: 1
EndChar

StartChar: five
Encoding: 53 53 22
Width: 500
GlyphClass: 2
Flags: W
AnchorPoint: "Anclaje-5" 434 0 basechar 0
AnchorPoint: "Anclaje-4" 434 735 basechar 0
AnchorPoint: "Anclaje-3" 250 367 basechar 0
AnchorPoint: "Anclaje-2" 250 382 basechar 0
AnchorPoint: "Anclaje-1" 250 0 basechar 0
AnchorPoint: "Anclaje-0" 250 735 basechar 0
LayerCount: 2
Fore
SplineSet
251 -8 m 256,0,1
 196 -8 196 -8 156 16 c 0,2,3
 114 40 114 40 88 85 c 0,4,5
 69 117 69 117 61 155 c 1,6,-1
 135 182 l 1,7,8
 142 148 142 148 157 121 c 0,9,10
 174 92 174 92 199 77 c 0,11,12
 222 64 222 64 251 64 c 256,13,14
 280 64 280 64 303 77 c 0,15,16
 328 91 328 91 344 120 c 0,17,18
 370 165 370 165 370 236 c 128,-1,19
 370 307 370 307 344 352 c 0,20,21
 328 380 328 380 304 394 c 0,22,23
 282 406 282 406 255 406 c 0,24,25
 227 406 227 406 205 394 c 0,26,27
 181 380 181 380 164 351 c 0,28,29
 153 331 153 331 147 308 c 1,30,-1
 75 340 l 1,31,-1
 75 735 l 1,32,-1
 424 735 l 1,33,-1
 424 590 l 1,34,-1
 344 590 l 1,35,-1
 344 663 l 1,36,-1
 155 663 l 1,37,-1
 155 451 l 1,38,39
 159 453 159 453 163 456 c 0,40,41
 202 478 202 478 255 478 c 256,42,43
 308 478 308 478 348 455 c 0,44,45
 389 432 389 432 415 387 c 0,46,47
 450 326 450 326 450 235.5 c 128,-1,48
 450 145 450 145 415 85 c 0,49,50
 389 40 389 40 347 16 c 0,51,52
 306 -8 306 -8 251 -8 c 256,0,1
EndSplineSet
Validated: 1
EndChar

StartChar: six
Encoding: 54 54 23
Width: 500
GlyphClass: 2
Flags: W
AnchorPoint: "Anclaje-5" 434 0 basechar 0
AnchorPoint: "Anclaje-4" 434 735 basechar 0
AnchorPoint: "Anclaje-3" 250 367 basechar 0
AnchorPoint: "Anclaje-2" 250 382 basechar 0
AnchorPoint: "Anclaje-1" 250 0 basechar 0
AnchorPoint: "Anclaje-0" 250 735 basechar 0
LayerCount: 2
Fore
SplineSet
250 -8 m 0,0,1
 192 -8 192 -8 149 17 c 0,2,3
 107 41 107 41 82 85 c 0,4,5
 50 140 50 140 50 220 c 0,6,7
 50 430 50 430 123 558 c 0,8,9
 177 651 177 651 268 703 c 0,10,11
 302 723 302 723 339 735 c 1,12,-1
 364 667 l 1,13,14
 339 657 339 657 315 644 c 0,15,16
 239 599 239 599 194 522 c 0,17,18
 166 472 166 472 150 407 c 1,19,20
 164 422 164 422 181 432 c 0,21,22
 210 449 210 449 253 449 c 0,23,24
 308 449 308 449 351 424 c 0,25,26
 393 400 393 400 418 356 c 0,27,28
 450 301 450 301 450 220.5 c 128,-1,29
 450 140 450 140 418 85 c 0,30,31
 393 41 393 41 351 17 c 0,32,33
 331 5 331 5 309 -1 c 0,34,35
 282 -8 282 -8 250 -8 c 0,0,1
250 64 m 256,36,37
 282 64 282 64 305 78 c 0,38,39
 331 92 331 92 347 121 c 0,40,41
 370 160 370 160 370 220.5 c 128,-1,42
 370 281 370 281 347 321 c 0,43,44
 331 349 331 349 306 363 c 0,45,46
 282 377 282 377 251 377 c 0,47,48
 219 377 219 377 195 363 c 0,49,50
 169 348 169 348 153 320 c 0,51,52
 130 280 130 280 130 220 c 128,-1,53
 130 160 130 160 153 121 c 0,54,55
 169 92 169 92 195 78 c 0,56,57
 218 64 218 64 250 64 c 256,36,37
EndSplineSet
Validated: 1
EndChar

StartChar: seven
Encoding: 55 55 24
Width: 500
GlyphClass: 2
Flags: W
AnchorPoint: "Anclaje-5" 434 0 basechar 0
AnchorPoint: "Anclaje-4" 434 735 basechar 0
AnchorPoint: "Anclaje-3" 250 367 basechar 0
AnchorPoint: "Anclaje-2" 250 382 basechar 0
AnchorPoint: "Anclaje-1" 250 0 basechar 0
AnchorPoint: "Anclaje-0" 250 735 basechar 0
LayerCount: 2
Fore
SplineSet
127 0 m 1,0,-1
 349 663 l 1,1,-1
 138 663 l 1,2,-1
 138 590 l 1,3,-1
 58 590 l 1,4,-1
 58 735 l 1,5,-1
 434 735 l 1,6,-1
 434 663 l 1,7,-1
 211 0 l 1,8,-1
 127 0 l 1,0,-1
EndSplineSet
Validated: 1
EndChar

StartChar: eight
Encoding: 56 56 25
Width: 500
GlyphClass: 2
Flags: W
AnchorPoint: "Anclaje-5" 434 0 basechar 0
AnchorPoint: "Anclaje-4" 434 735 basechar 0
AnchorPoint: "Anclaje-3" 250 367 basechar 0
AnchorPoint: "Anclaje-2" 250 382 basechar 0
AnchorPoint: "Anclaje-1" 250 0 basechar 0
AnchorPoint: "Anclaje-0" 250 735 basechar 0
LayerCount: 2
Fore
SplineSet
250 -8 m 256,0,1
 183 -8 183 -8 136 19 c 0,2,3
 96 42 96 42 74 80 c 0,4,5
 50 122 50 122 50 173.5 c 128,-1,6
 50 225 50 225 78 274 c 0,7,8
 106 322 106 322 185 377 c 1,9,10
 119 425 119 425 94 468 c 0,11,12
 66 517 66 517 66 568.5 c 128,-1,13
 66 620 66 620 90 661 c 0,14,15
 110 697 110 697 148 719 c 0,16,17
 190 743 190 743 250 743 c 256,18,19
 310 743 310 743 352 719 c 0,20,21
 390 697 390 697 410 661 c 0,22,23
 434 620 434 620 434 568.5 c 128,-1,24
 434 517 434 517 406 468 c 0,25,26
 381 425 381 425 315 377 c 1,27,28
 394 322 394 322 422 274 c 0,29,30
 450 225 450 225 450 173.5 c 128,-1,31
 450 122 450 122 426 80 c 0,32,33
 404 42 404 42 364 19 c 0,34,35
 317 -8 317 -8 250 -8 c 256,0,1
250 64 m 256,36,37
 290 64 290 64 319 80 c 0,38,39
 342 94 342 94 356 117 c 0,40,41
 370 142 370 142 370 173 c 0,42,43
 370 208 370 208 350 242 c 0,44,45
 326 284 326 284 250 333 c 1,46,47
 174 284 174 284 150 242 c 0,48,49
 130 208 130 208 130 173 c 0,50,51
 130 142 130 142 144 117 c 0,52,53
 158 94 158 94 181 80 c 0,54,55
 210 64 210 64 250 64 c 256,36,37
250 420 m 1,56,57
 313 463 313 463 335 500 c 0,58,59
 354 535 354 535 354 569 c 0,60,61
 354 600 354 600 340 624 c 0,62,63
 328 645 328 645 307 657 c 0,64,65
 283 671 283 671 250 671 c 256,66,67
 217 671 217 671 193 657 c 0,68,69
 172 645 172 645 160 624 c 0,70,71
 146 600 146 600 146 569 c 0,72,73
 146 535 146 535 165 500 c 0,74,75
 187 463 187 463 250 420 c 1,56,57
EndSplineSet
Validated: 1
EndChar

StartChar: nine
Encoding: 57 57 26
Width: 500
GlyphClass: 2
Flags: W
AnchorPoint: "Anclaje-5" 434 0 basechar 0
AnchorPoint: "Anclaje-4" 434 735 basechar 0
AnchorPoint: "Anclaje-3" 250 367 basechar 0
AnchorPoint: "Anclaje-2" 250 382 basechar 0
AnchorPoint: "Anclaje-1" 250 0 basechar 0
AnchorPoint: "Anclaje-0" 250 735 basechar 0
LayerCount: 2
Fore
SplineSet
250 -8 m 0,0,1
 197 -8 197 -8 158 15 c 0,2,3
 115 39 115 39 89 86 c 0,4,5
 71 117 71 117 61 155 c 1,6,-1
 133 187 l 1,7,8
 140 152 140 152 156 123 c 0,9,10
 175 91 175 91 200 77 c 0,11,12
 222 64 222 64 250 64 c 0,13,14
 277 64 277 64 298 76 c 0,15,16
 323 91 323 91 340 121 c 0,17,18
 370 172 370 172 370 257 c 2,19,-1
 370 335 l 1,20,21
 349 303 349 303 319.5 285.5 c 128,-1,22
 290 268 290 268 247 268 c 0,23,24
 192 268 192 268 149.5 292.5 c 128,-1,25
 107 317 107 317 82 361 c 0,26,27
 50 416 50 416 50 496 c 2,28,-1
 50 515 l 2,29,30
 50 595 50 595 82 650 c 0,31,32
 107 694 107 694 149.5 718.5 c 128,-1,33
 192 743 192 743 250 743 c 0,34,35
 307 743 307 743 348 719 c 0,36,37
 391 695 391 695 416 650 c 0,38,39
 450 592 450 592 450 506 c 2,40,-1
 450 257 l 2,41,42
 450 154 450 154 411 86 c 0,43,44
 383 39 383 39 341 15 c 0,45,46
 302 -8 302 -8 250 -8 c 0,0,1
249 340 m 0,47,48
 281 340 281 340 305 354 c 0,49,50
 331 369 331 369 347 397 c 0,51,52
 370 437 370 437 370 496 c 2,53,-1
 370 508 l 2,54,55
 370 573 370 573 345 614 c 0,56,57
 329 643 329 643 303 658 c 0,58,59
 281 671 281 671 250 671 c 0,60,61
 218 671 218 671 194 657 c 0,62,63
 169 642 169 642 153 614 c 0,64,65
 130 575 130 575 130 515 c 2,66,-1
 130 496 l 2,67,68
 130 436 130 436 153 396 c 0,69,70
 169 369 169 369 194 354 c 0,71,72
 218 340 218 340 249 340 c 0,47,48
EndSplineSet
Validated: 1
EndChar

StartChar: colon
Encoding: 58 58 27
Width: 500
GlyphClass: 2
Flags: W
LayerCount: 2
Fore
SplineSet
250 382 m 256,0,1
 225 382 225 382 207 392 c 0,2,3
 192 401 192 401 182 417 c 0,4,5
 172 435 172 435 172 460 c 128,-1,6
 172 485 172 485 182 503 c 0,7,8
 192 519 192 519 207 528 c 0,9,10
 225 538 225 538 250 538 c 256,11,12
 275 538 275 538 293 528 c 0,13,14
 308 519 308 519 318 503 c 0,15,16
 328 485 328 485 328 460 c 128,-1,17
 328 435 328 435 318 417 c 0,18,19
 308 401 308 401 293 392 c 0,20,21
 275 382 275 382 250 382 c 256,0,1
250 -8 m 256,22,23
 225 -8 225 -8 207 2 c 0,24,25
 192 11 192 11 182 27 c 0,26,27
 172 45 172 45 172 70 c 128,-1,28
 172 95 172 95 182 113 c 0,29,30
 192 129 192 129 207 138 c 0,31,32
 225 148 225 148 250 148 c 256,33,34
 275 148 275 148 293 138 c 0,35,36
 308 129 308 129 318 113 c 0,37,38
 328 95 328 95 328 70 c 128,-1,39
 328 45 328 45 318 27 c 0,40,41
 308 11 308 11 293 2 c 0,42,43
 275 -8 275 -8 250 -8 c 256,22,23
EndSplineSet
Validated: 1
EndChar

StartChar: semicolon
Encoding: 59 59 28
Width: 500
GlyphClass: 2
Flags: W
LayerCount: 2
Fore
SplineSet
250 382 m 256,0,1
 225 382 225 382 207 392 c 0,2,3
 192 401 192 401 182 417 c 0,4,5
 172 435 172 435 172 460 c 128,-1,6
 172 485 172 485 182 503 c 0,7,8
 192 519 192 519 207 528 c 0,9,10
 225 538 225 538 250 538 c 256,11,12
 275 538 275 538 293 528 c 0,13,14
 308 519 308 519 318 503 c 0,15,16
 328 485 328 485 328 460 c 128,-1,17
 328 435 328 435 318 417 c 0,18,19
 308 401 308 401 293 392 c 0,20,21
 275 382 275 382 250 382 c 256,0,1
229 -205 m 1,22,-1
 166 -164 l 1,23,24
 183 -140 183 -140 196 -118 c 0,25,26
 228 -63 228 -63 241 -8 c 1,27,28
 222 -6 222 -6 207 2.5 c 128,-1,29
 192 11 192 11 182 27 c 0,30,31
 172 45 172 45 172 70 c 128,-1,32
 172 95 172 95 182 113 c 0,33,34
 192 129 192 129 207 138 c 0,35,36
 225 148 225 148 250 148 c 256,37,38
 275 148 275 148 293 138 c 0,39,40
 308 129 308 129 318 113 c 0,41,42
 327 96 327 96 328 70 c 0,43,44
 328 -41 328 -41 264 -150 c 0,45,46
 249 -177 249 -177 229 -205 c 1,22,-1
EndSplineSet
Validated: 1
EndChar

StartChar: less
Encoding: 60 60 29
Width: 500
GlyphClass: 2
Flags: W
AnchorPoint: "Anclaje-5" 434 0 basechar 0
AnchorPoint: "Anclaje-4" 434 530 basechar 0
AnchorPoint: "Anclaje-3" 250 365 basechar 0
AnchorPoint: "Anclaje-2" 250 373 basechar 0
AnchorPoint: "Anclaje-1" 250 162 basechar 0
AnchorPoint: "Anclaje-0" 250 567 basechar 0
LayerCount: 2
Fore
SplineSet
414 121 m 1,0,-1
 66 323 l 1,1,-1
 66 407 l 1,2,-1
 414 609 l 1,3,-1
 454 547 l 1,4,-1
 138 365 l 1,5,-1
 454 183 l 1,6,-1
 414 121 l 1,0,-1
EndSplineSet
Validated: 1
EndChar

StartChar: equal
Encoding: 61 61 30
Width: 500
GlyphClass: 2
Flags: W
AnchorPoint: "Anclaje-5" 434 0 basechar 0
AnchorPoint: "Anclaje-4" 434 530 basechar 0
AnchorPoint: "Anclaje-3" 250 365 basechar 0
AnchorPoint: "Anclaje-2" 250 373 basechar 0
AnchorPoint: "Anclaje-1" 250 162 basechar 0
AnchorPoint: "Anclaje-0" 250 567 basechar 0
LayerCount: 2
Fore
SplineSet
66 436 m 1,0,-1
 66 508 l 1,1,-1
 434 508 l 1,2,-1
 434 436 l 1,3,-1
 66 436 l 1,0,-1
66 222 m 1,4,-1
 66 294 l 1,5,-1
 434 294 l 1,6,-1
 434 222 l 1,7,-1
 66 222 l 1,4,-1
EndSplineSet
Validated: 1
EndChar

StartChar: greater
Encoding: 62 62 31
Width: 500
GlyphClass: 2
Flags: W
AnchorPoint: "Anclaje-5" 434 0 basechar 0
AnchorPoint: "Anclaje-4" 434 530 basechar 0
AnchorPoint: "Anclaje-3" 250 365 basechar 0
AnchorPoint: "Anclaje-2" 250 373 basechar 0
AnchorPoint: "Anclaje-1" 250 162 basechar 0
AnchorPoint: "Anclaje-0" 250 567 basechar 0
LayerCount: 2
Fore
SplineSet
86 121 m 1,0,-1
 46 183 l 1,1,-1
 362 365 l 1,2,-1
 46 547 l 1,3,-1
 86 609 l 1,4,-1
 434 407 l 1,5,-1
 434 323 l 1,6,-1
 86 121 l 1,0,-1
EndSplineSet
Validated: 1
EndChar

StartChar: question
Encoding: 63 63 32
Width: 500
GlyphClass: 2
Flags: W
LayerCount: 2
Fore
SplineSet
290 221 m 1,0,-1
 210 221 l 1,1,2
 210 309 210 309 242 364 c 0,3,4
 256 389 256 389 290 430 c 0,5,6
 320 468 320 468 330 487 c 0,7,8
 354 528 354 528 354 567 c 0,9,10
 354 598 354 598 340 623 c 0,11,12
 328 644 328 644 306 657 c 0,13,14
 281 671 281 671 247 671 c 0,15,16
 210 671 210 671 184 656 c 0,17,18
 163 644 163 644 151.5 624 c 128,-1,19
 140 604 140 604 140 581 c 0,20,21
 140 579 140 579 140 575 c 0,22,23
 140 573 140 573 140 571 c 2,24,-1
 61 580 l 2,25,26
 61 584 61 584 61 587 c 0,27,28
 61 627 61 627 81 660 c 0,29,30
 101 696 101 696 138 717 c 0,31,32
 182 743 182 743 247 743 c 0,33,34
 308 743 308 743 351 718 c 0,35,36
 388 696 388 696 410 659 c 0,37,38
 434 617 434 617 434 565 c 0,39,40
 434 506 434 506 401 449 c 0,41,42
 386 423 386 423 351 380 c 0,43,44
 325 346 325 346 315 328 c 0,45,46
 290 286 290 286 290 221 c 1,0,-1
250 -8 m 256,47,48
 228 -8 228 -8 211 1 c 0,49,50
 197 10 197 10 189 24 c 0,51,52
 179 40 179 40 180 63 c 0,53,54
 179 85 179 85 189 101 c 0,55,56
 197 115 197 115 211 124 c 0,57,58
 228 133 228 133 250 133 c 256,59,60
 272 133 272 133 289 124 c 0,61,62
 303 115 303 115 311 101 c 0,63,64
 320 86 320 86 321 63 c 0,65,66
 320 39 320 39 311 24 c 0,67,68
 303 10 303 10 289 1 c 0,69,70
 272 -8 272 -8 250 -8 c 256,47,48
EndSplineSet
Validated: 33
EndChar

StartChar: at
Encoding: 64 64 33
Width: 500
GlyphClass: 2
Flags: W
LayerCount: 2
Fore
SplineSet
250 -176 m 2,0,1
 195 -176 195 -176 154 -153 c 0,2,3
 117 -131 117 -131 94 -91 c 0,4,5
 66 -43 66 -43 66 27 c 2,6,-1
 66 703 l 2,7,8
 66 773 66 773 94 821 c 0,9,10
 117 861 117 861 155 883 c 0,11,12
 195 906 195 906 250 906 c 256,13,14
 305 906 305 906 345 883 c 0,15,16
 383 861 383 861 406 821 c 0,17,18
 434 773 434 773 434 703 c 2,19,-1
 434 177 l 2,20,21
 434 124 434 124 414 88 c 0,22,23
 399 63 399 63 376.5 50 c 128,-1,24
 354 37 354 37 324 37 c 0,25,26
 292 37 292 37 267.5 51.5 c 128,-1,27
 243 66 243 66 227 92 c 0,28,29
 207 127 207 127 207 177 c 2,30,-1
 207 499 l 2,31,32
 207 550 207 550 227 584 c 0,33,34
 243 611 243 611 267.5 625 c 128,-1,35
 292 639 292 639 325 640 c 2,36,-1
 354 640 l 1,37,-1
 354 703 l 2,38,39
 354 752 354 752 335 785 c 0,40,41
 321 809 321 809 299 822 c 0,42,43
 278 834 278 834 250 834 c 256,44,45
 222 834 222 834 201 822 c 0,46,47
 179 809 179 809 165 785 c 0,48,49
 146 752 146 752 146 703 c 2,50,-1
 146 27 l 2,51,52
 146 -22 146 -22 165 -55 c 0,53,54
 179 -79 179 -79 200.5 -91.5 c 128,-1,55
 222 -104 222 -104 250 -104 c 2,56,-1
 398 -104 l 1,57,-1
 398 -176 l 1,58,-1
 250 -176 l 2,0,1
324 109 m 0,59,60
 332 109 332 109 338 115 c 0,61,62
 354 131 354 131 354 177 c 2,63,-1
 354 568 l 1,64,-1
 325 568 l 2,65,66
 313 568 313 568 305 559 c 0,67,68
 287 542 287 542 287 499 c 2,69,-1
 287 177 l 2,70,71
 287 135 287 135 305 118 c 0,72,73
 313 109 313 109 324 109 c 0,59,60
EndSplineSet
Substitution2: "'ss05' Estilo 5 lookup 45 subtable" at.ss05
Substitution2: "'ss07' Style Set 7 lookup 44 subtable" at.ss07
Substitution2: "'ss11' Style Set 11 lookup 43 subtable" at.ss11
EndChar

StartChar: A
Encoding: 65 65 34
Width: 500
GlyphClass: 2
Flags: W
AnchorPoint: "Anclaje-6" 333 0 basechar 0
AnchorPoint: "Anclaje-5" 369 0 basechar 0
AnchorPoint: "Anclaje-4" 499 735 basechar 0
AnchorPoint: "Anclaje-3" 250 367 basechar 0
AnchorPoint: "Anclaje-2" 253 382 basechar 0
AnchorPoint: "Anclaje-1" 185 0 basechar 0
AnchorPoint: "Anclaje-0" 315 735 basechar 0
LayerCount: 2
Fore
SplineSet
-35 0 m 1,0,-1
 -35 72 l 1,1,-1
 15 72 l 1,2,-1
 15 74 l 1,3,4
 50 273 50 273 267 735 c 1,5,-1
 364 735 l 1,6,7
 418 273 418 273 383 74 c 1,8,-1
 383 72 l 1,9,-1
 422 72 l 1,10,-1
 422 0 l 1,11,-1
 252 0 l 1,12,-1
 252 72 l 1,13,-1
 302 72 l 1,14,-1
 302 74 l 1,15,16
 311 125 311 125 314 193 c 1,17,-1
 126 193 l 1,18,19
 105 124 105 124 96 74 c 1,20,-1
 96 72 l 1,21,-1
 135 72 l 1,22,-1
 135 0 l 1,23,-1
 -35 0 l 1,0,-1
317 265 m 1,24,25
 319 418 319 418 300 637 c 1,26,27
 201 417 201 417 149 265 c 1,28,-1
 317 265 l 1,24,25
EndSplineSet
EndChar

StartChar: B
Encoding: 66 66 35
Width: 500
GlyphClass: 2
Flags: W
AnchorPoint: "Anclaje-5" 369 0 basechar 0
AnchorPoint: "Anclaje-4" 499 735 basechar 0
AnchorPoint: "Anclaje-3" 250 367 basechar 0
AnchorPoint: "Anclaje-2" 253 382 basechar 0
AnchorPoint: "Anclaje-1" 185 0 basechar 0
AnchorPoint: "Anclaje-0" 315 735 basechar 0
LayerCount: 2
Fore
SplineSet
-35 0 m 1,0,-1
 -35 72 l 1,1,-1
 15 72 l 1,2,-1
 118 663 l 1,3,-1
 79 663 l 1,4,-1
 79 735 l 1,5,-1
 277 735 l 2,6,7
 341 735 341 735 382 708 c 0,8,9
 419 685 419 685 437 641 c 0,10,11
 457 591 457 591 445 523 c 0,12,13
 436 474 436 474 411 441 c 0,14,15
 387 409 387 409 349 389 c 0,16,17
 339 384 339 384 329 380 c 1,18,19
 341 374 341 374 352 367 c 0,20,21
 393 340 393 340 411 296 c 0,22,23
 430 250 430 250 419 188 c 0,24,25
 409 132 409 132 379 92.5 c 128,-1,26
 349 53 349 53 305 29 c 0,27,28
 249 0 249 0 176 0 c 2,29,-1
 -35 0 l 1,0,-1
156 418 m 1,30,-1
 240 418 l 2,31,32
 272 418 272 418 298 432 c 0,33,34
 322 444 322 444 338 467 c 0,35,36
 359 493 359 493 366 534 c 0,37,38
 374 580 374 580 361 611 c 0,39,40
 351 636 351 636 331 649 c 0,41,42
 309 663 309 663 277 663 c 2,43,-1
 199 663 l 1,44,-1
 156 418 l 1,30,-1
96 72 m 1,45,-1
 176 72 l 2,46,47
 225 72 225 72 262 92 c 0,48,49
 292 107 292 107 312.5 134.5 c 128,-1,50
 333 162 333 162 340 201 c 0,51,52
 348 246 348 246 335 280 c 0,53,54
 322 310 322 310 296 327 c 0,55,56
 266 346 266 346 218 346 c 2,57,-1
 144 346 l 1,58,-1
 96 72 l 1,45,-1
EndSplineSet
EndChar

StartChar: C
Encoding: 67 67 36
Width: 500
GlyphClass: 2
Flags: W
AnchorPoint: "Anclaje-5" 369 0 basechar 0
AnchorPoint: "Anclaje-4" 499 735 basechar 0
AnchorPoint: "Anclaje-3" 250 367 basechar 0
AnchorPoint: "Anclaje-2" 253 382 basechar 0
AnchorPoint: "Anclaje-1" 185 0 basechar 0
AnchorPoint: "Anclaje-0" 315 735 basechar 0
LayerCount: 2
Fore
SplineSet
207 -8 m 0,0,1
 136 -8 136 -8 90 21 c 0,2,3
 50 48 50 48 32 92 c 0,4,5
 11 144 11 144 24 216 c 2,6,-1
 85 561 l 2,7,8
 95 620 95 620 127 662 c 0,9,10
 154 698 154 698 194 719 c 0,11,12
 240 743 240 743 297 743 c 0,13,14
 364 743 364 743 410 714 c 0,15,16
 450 688 450 688 467 645 c 0,17,18
 480 614 480 614 477 580 c 1,19,-1
 398 571 l 1,20,-1
 398 573 l 1,21,22
 402 595 402 595 394 616 c 0,23,24
 384 640 384 640 361 655 c 0,25,26
 336 671 336 671 297 671 c 0,27,28
 264 671 264 671 236 657 c 0,29,30
 210 643 210 643 193 620 c 0,31,32
 171 591 171 591 163 549 c 2,33,-1
 103 204 l 2,34,35
 94 156 94 156 108 123 c 0,36,37
 118 96 118 96 142 80 c 0,38,39
 168 64 168 64 207 64 c 0,40,41
 242 64 242 64 270.5 79 c 128,-1,42
 299 94 299 94 320 122 c 0,43,44
 333 140 333 140 341 159 c 1,45,-1
 415 132 l 1,46,47
 404 106 404 106 386 82 c 0,48,49
 354 39 354 39 308.5 15.5 c 128,-1,50
 263 -8 263 -8 207 -8 c 0,0,1
EndSplineSet
EndChar

StartChar: D
Encoding: 68 68 37
Width: 500
GlyphClass: 2
Flags: W
AnchorPoint: "Anclaje-5" 369 0 basechar 0
AnchorPoint: "Anclaje-4" 499 735 basechar 0
AnchorPoint: "Anclaje-3" 250 367 basechar 0
AnchorPoint: "Anclaje-2" 253 382 basechar 0
AnchorPoint: "Anclaje-1" 185 0 basechar 0
AnchorPoint: "Anclaje-0" 315 735 basechar 0
LayerCount: 2
Fore
SplineSet
-35 0 m 1,0,-1
 -35 72 l 1,1,-1
 15 72 l 1,2,-1
 118 663 l 1,3,-1
 79 663 l 1,4,-1
 79 735 l 1,5,-1
 285 735 l 2,6,7
 348 735 348 735 391 707.5 c 128,-1,8
 434 680 434 680 455 627 c 0,9,10
 484 556 484 556 465 451 c 2,11,-1
 428 242 l 2,12,13
 414 162 414 162 371 105 c 0,14,15
 336 57 336 57 284 30 c 0,16,17
 226 0 226 0 155 0 c 2,18,-1
 -35 0 l 1,0,-1
96 72 m 1,19,-1
 155 72 l 2,20,21
 203 72 203 72 242 93 c 0,22,23
 279 112 279 112 305 147 c 0,24,25
 338 190 338 190 350 255 c 2,26,-1
 386 463 l 2,27,28
 401 546 401 546 380 598 c 0,29,30
 367 632 367 632 341 648 c 0,31,32
 318 663 318 663 285 663 c 2,33,-1
 199 663 l 1,34,-1
 96 72 l 1,19,-1
EndSplineSet
EndChar

StartChar: E
Encoding: 69 69 38
Width: 500
GlyphClass: 2
Flags: W
AnchorPoint: "Anclaje-5" 369 0 basechar 0
AnchorPoint: "Anclaje-4" 499 735 basechar 0
AnchorPoint: "Anclaje-3" 250 367 basechar 0
AnchorPoint: "Anclaje-2" 253 382 basechar 0
AnchorPoint: "Anclaje-1" 185 0 basechar 0
AnchorPoint: "Anclaje-0" 315 735 basechar 0
LayerCount: 2
Fore
SplineSet
-2 0 m 1,0,-1
 -2 72 l 1,1,-1
 48 72 l 1,2,-1
 151 663 l 1,3,-1
 112 663 l 1,4,-1
 112 735 l 1,5,-1
 499 735 l 1,6,-1
 487 663 l 1,7,-1
 474 590 l 1,8,-1
 393 590 l 1,9,-1
 406 663 l 1,10,-1
 232 663 l 1,11,-1
 189 418 l 1,12,-1
 370 418 l 1,13,-1
 357 346 l 1,14,-1
 177 346 l 1,15,-1
 129 72 l 1,16,-1
 301 72 l 1,17,-1
 314 145 l 1,18,-1
 395 145 l 1,19,-1
 370 0 l 1,20,-1
 -2 0 l 1,0,-1
EndSplineSet
EndChar

StartChar: F
Encoding: 70 70 39
Width: 500
GlyphClass: 2
Flags: W
AnchorPoint: "Anclaje-5" 369 0 basechar 0
AnchorPoint: "Anclaje-4" 499 735 basechar 0
AnchorPoint: "Anclaje-3" 250 367 basechar 0
AnchorPoint: "Anclaje-2" 253 382 basechar 0
AnchorPoint: "Anclaje-1" 185 0 basechar 0
AnchorPoint: "Anclaje-0" 315 735 basechar 0
LayerCount: 2
Fore
SplineSet
-2 0 m 1,0,-1
 -2 72 l 1,1,-1
 48 72 l 1,2,-1
 151 663 l 1,3,-1
 112 663 l 1,4,-1
 112 735 l 1,5,-1
 499 735 l 1,6,-1
 487 663 l 1,7,-1
 474 590 l 1,8,-1
 393 590 l 1,9,-1
 406 663 l 1,10,-1
 232 663 l 1,11,-1
 189 418 l 1,12,-1
 370 418 l 1,13,-1
 357 346 l 1,14,-1
 177 346 l 1,15,-1
 129 72 l 1,16,-1
 168 72 l 1,17,-1
 168 0 l 1,18,-1
 -2 0 l 1,0,-1
EndSplineSet
EndChar

StartChar: G
Encoding: 71 71 40
Width: 500
GlyphClass: 2
Flags: W
AnchorPoint: "Anclaje-5" 369 0 basechar 0
AnchorPoint: "Anclaje-4" 499 735 basechar 0
AnchorPoint: "Anclaje-3" 250 367 basechar 0
AnchorPoint: "Anclaje-2" 253 382 basechar 0
AnchorPoint: "Anclaje-1" 185 0 basechar 0
AnchorPoint: "Anclaje-0" 315 735 basechar 0
LayerCount: 2
Fore
SplineSet
196 -8 m 0,0,1
 132 -8 132 -8 89 20 c 0,2,3
 49 45 49 45 32 89 c 0,4,5
 11 142 11 142 24 216 c 2,6,-1
 85 561 l 2,7,8
 95 620 95 620 127 662 c 0,9,10
 154 698 154 698 194 719 c 0,11,12
 240 743 240 743 297 743 c 0,13,14
 364 743 364 743 410 714 c 0,15,16
 450 688 450 688 467 645 c 0,17,18
 480 614 480 614 477 580 c 1,19,-1
 398 571 l 1,20,-1
 398 573 l 1,21,22
 402 595 402 595 394 616 c 0,23,24
 384 640 384 640 361 655 c 0,25,26
 336 671 336 671 297 671 c 0,27,28
 264 671 264 671 236 657 c 0,29,30
 210 643 210 643 193 620 c 0,31,32
 171 591 171 591 163 549 c 2,33,-1
 103 204 l 2,34,35
 94 155 94 155 107 120 c 0,36,37
 118 93 118 93 140.5 78.5 c 128,-1,38
 163 64 163 64 197 64 c 0,39,40
 226 64 226 64 250 76.5 c 128,-1,41
 274 89 274 89 291 112 c 0,42,43
 313 141 313 141 322 186 c 2,44,-1
 347 328 l 1,45,-1
 256 328 l 1,46,-1
 256 400 l 1,47,-1
 440 400 l 1,48,-1
 427 328 l 1,49,-1
 400 174 l 2,50,51
 390 113 390 113 357 70 c 0,52,53
 330 34 330 34 291 14 c 0,54,55
 250 -8 250 -8 196 -8 c 0,0,1
EndSplineSet
EndChar

StartChar: H
Encoding: 72 72 41
Width: 500
GlyphClass: 2
Flags: W
AnchorPoint: "Anclaje-5" 369 0 basechar 0
AnchorPoint: "Anclaje-4" 499 735 basechar 0
AnchorPoint: "Anclaje-3" 250 367 basechar 0
AnchorPoint: "Anclaje-2" 253 382 basechar 0
AnchorPoint: "Anclaje-1" 185 0 basechar 0
AnchorPoint: "Anclaje-0" 315 735 basechar 0
LayerCount: 2
Fore
SplineSet
-35 0 m 1,0,-1
 -35 72 l 1,1,-1
 15 72 l 1,2,-1
 118 663 l 1,3,-1
 79 663 l 1,4,-1
 79 735 l 1,5,-1
 249 735 l 1,6,-1
 249 663 l 1,7,-1
 199 663 l 1,8,-1
 157 422 l 1,9,-1
 363 422 l 1,10,-1
 405 663 l 1,11,-1
 366 663 l 1,12,-1
 366 735 l 1,13,-1
 536 735 l 1,14,-1
 536 663 l 1,15,-1
 486 663 l 1,16,-1
 383 72 l 1,17,-1
 422 72 l 1,18,-1
 422 0 l 1,19,-1
 252 0 l 1,20,-1
 252 72 l 1,21,-1
 302 72 l 1,22,-1
 350 350 l 1,23,-1
 144 350 l 1,24,-1
 96 72 l 1,25,-1
 135 72 l 1,26,-1
 135 0 l 1,27,-1
 -35 0 l 1,0,-1
EndSplineSet
EndChar

StartChar: I
Encoding: 73 73 42
Width: 500
GlyphClass: 2
Flags: W
AnchorPoint: "Anclaje-5" 369 0 basechar 0
AnchorPoint: "Anclaje-4" 499 735 basechar 0
AnchorPoint: "Anclaje-3" 250 367 basechar 0
AnchorPoint: "Anclaje-2" 253 382 basechar 0
AnchorPoint: "Anclaje-1" 185 0 basechar 0
AnchorPoint: "Anclaje-0" 315 735 basechar 0
LayerCount: 2
Fore
SplineSet
53 0 m 1,0,-1
 53 72 l 1,1,-1
 158 72 l 1,2,-1
 262 663 l 1,3,-1
 168 663 l 1,4,-1
 168 735 l 1,5,-1
 448 735 l 1,6,-1
 448 663 l 1,7,-1
 343 663 l 1,8,-1
 239 72 l 1,9,-1
 333 72 l 1,10,-1
 333 0 l 1,11,-1
 53 0 l 1,0,-1
EndSplineSet
EndChar

StartChar: J
Encoding: 74 74 43
Width: 500
GlyphClass: 2
Flags: W
AnchorPoint: "Anclaje-5" 369 0 basechar 0
AnchorPoint: "Anclaje-4" 499 735 basechar 0
AnchorPoint: "Anclaje-3" 250 367 basechar 0
AnchorPoint: "Anclaje-2" 351 382 basechar 0
AnchorPoint: "Anclaje-1" 185 0 basechar 0
AnchorPoint: "Anclaje-0" 413 735 basechar 0
LayerCount: 2
Fore
SplineSet
174 -8 m 0,0,1
 111 -8 111 -8 72 18 c 0,2,3
 36 41 36 41 19 82 c 0,4,5
 6 115 6 115 7 155 c 1,6,-1
 86 170 l 1,7,8
 83 140 83 140 93 115 c 0,9,10
 104 90 104 90 124 77 c 128,-1,11
 144 64 144 64 174 64 c 0,12,13
 199 64 199 64 220 75 c 0,14,15
 243 87 243 87 262 112 c 0,16,17
 290 149 290 149 300 208 c 2,18,-1
 380 663 l 1,19,-1
 251 663 l 1,20,-1
 251 735 l 1,21,-1
 474 735 l 1,22,-1
 461 663 l 1,23,-1
 379 195 l 2,24,25
 366 121 366 121 328 71 c 0,26,27
 299 33 299 33 260 12 c 0,28,29
 222 -8 222 -8 174 -8 c 0,0,1
EndSplineSet
EndChar

StartChar: K
Encoding: 75 75 44
Width: 500
GlyphClass: 2
Flags: W
AnchorPoint: "Anclaje-5" 369 0 basechar 0
AnchorPoint: "Anclaje-4" 499 735 basechar 0
AnchorPoint: "Anclaje-3" 250 367 basechar 0
AnchorPoint: "Anclaje-2" 253 382 basechar 0
AnchorPoint: "Anclaje-1" 185 0 basechar 0
AnchorPoint: "Anclaje-0" 315 735 basechar 0
LayerCount: 2
Fore
SplineSet
-35 0 m 1,0,-1
 -35 72 l 1,1,-1
 15 72 l 1,2,-1
 118 663 l 1,3,-1
 79 663 l 1,4,-1
 79 735 l 1,5,-1
 249 735 l 1,6,-1
 249 663 l 1,7,-1
 199 663 l 1,8,-1
 154 402 l 1,9,10
 296 572 296 572 348 642 c 0,11,12
 402 713 402 713 406 735 c 1,13,-1
 432 735 l 1,14,-1
 530 735 l 1,15,-1
 530 663 l 1,16,-1
 459 663 l 1,17,18
 446 645 446 645 430 624 c 0,19,20
 387 567 387 567 296 456 c 1,21,22
 358 186 358 186 374 72 c 1,23,-1
 430 72 l 1,24,-1
 430 0 l 1,25,-1
 337 0 l 1,26,-1
 297 0 l 1,27,28
 306 52 306 52 232 378 c 1,29,30
 185 321 185 321 127 252 c 1,31,-1
 96 72 l 1,32,-1
 135 72 l 1,33,-1
 135 0 l 1,34,-1
 -35 0 l 1,0,-1
EndSplineSet
EndChar

StartChar: L
Encoding: 76 76 45
Width: 500
GlyphClass: 2
Flags: W
AnchorPoint: "Anclaje-5" 369 0 basechar 0
AnchorPoint: "Anclaje-4" 499 735 basechar 0
AnchorPoint: "Anclaje-3" 250 367 basechar 0
AnchorPoint: "Anclaje-2" 253 382 basechar 0
AnchorPoint: "Anclaje-1" 185 0 basechar 0
AnchorPoint: "Anclaje-0" 315 735 basechar 0
LayerCount: 2
Fore
SplineSet
-2 0 m 1,0,-1
 -2 72 l 1,1,-1
 48 72 l 1,2,-1
 151 663 l 1,3,-1
 112 663 l 1,4,-1
 112 735 l 1,5,-1
 282 735 l 1,6,-1
 282 663 l 1,7,-1
 232 663 l 1,8,-1
 129 72 l 1,9,-1
 317 72 l 1,10,-1
 330 145 l 1,11,-1
 411 145 l 1,12,-1
 386 0 l 1,13,-1
 -2 0 l 1,0,-1
EndSplineSet
EndChar

StartChar: M
Encoding: 77 77 46
Width: 500
GlyphClass: 2
Flags: W
AnchorPoint: "Anclaje-5" 369 0 basechar 0
AnchorPoint: "Anclaje-4" 499 735 basechar 0
AnchorPoint: "Anclaje-3" 250 367 basechar 0
AnchorPoint: "Anclaje-2" 253 382 basechar 0
AnchorPoint: "Anclaje-1" 185 0 basechar 0
AnchorPoint: "Anclaje-0" 315 735 basechar 0
LayerCount: 2
Fore
SplineSet
-35 0 m 1,0,-1
 -35 72 l 1,1,-1
 15 72 l 1,2,-1
 28 147 l 1,3,-1
 118 663 l 1,4,-1
 79 663 l 1,5,-1
 79 735 l 1,6,-1
 217 735 l 1,7,-1
 245 339 l 1,8,-1
 414 735 l 1,9,-1
 536 735 l 1,10,-1
 536 663 l 1,11,-1
 486 663 l 1,12,-1
 396 147 l 1,13,-1
 383 72 l 1,14,-1
 422 72 l 1,15,-1
 422 0 l 1,16,-1
 252 0 l 1,17,-1
 252 72 l 1,18,-1
 302 72 l 1,19,-1
 315 147 l 2,20,21
 336 266 336 266 369 407 c 1,22,-1
 371 417 l 2,23,24
 374 429 374 429 377 441 c 0,25,26
 387 480 387 480 396 518 c 2,27,-1
 398 527 l 2,28,29
 405 560 405 560 412 592 c 1,30,-1
 254 221 l 1,31,-1
 195 221 l 1,32,-1
 168 591 l 1,33,34
 162 547 162 547 156 500 c 2,35,-1
 155 490 l 2,36,37
 154 488 154 488 154 487 c 0,38,39
 154 483 154 483 153 480 c 2,40,-1
 152 471 l 1,41,-1
 151 461 l 2,42,43
 150 451 150 451 149 441 c 0,44,45
 134 290 134 290 109 147 c 2,46,-1
 96 72 l 1,47,-1
 135 72 l 1,48,-1
 135 0 l 1,49,-1
 -35 0 l 1,0,-1
EndSplineSet
EndChar

StartChar: N
Encoding: 78 78 47
Width: 500
GlyphClass: 2
Flags: W
AnchorPoint: "Anclaje-5" 369 0 basechar 0
AnchorPoint: "Anclaje-4" 499 735 basechar 0
AnchorPoint: "Anclaje-3" 250 367 basechar 0
AnchorPoint: "Anclaje-2" 253 382 basechar 0
AnchorPoint: "Anclaje-1" 185 0 basechar 0
AnchorPoint: "Anclaje-0" 315 735 basechar 0
LayerCount: 2
Fore
SplineSet
-35 0 m 1,0,-1
 -35 72 l 1,1,-1
 14 72 l 1,2,-1
 53 294 l 1,3,-1
 118 663 l 1,4,-1
 79 663 l 1,5,-1
 79 735 l 1,6,-1
 238 735 l 1,7,-1
 318 138 l 1,8,9
 321 153 321 153 324 172 c 2,10,-1
 325 181 l 2,11,12
 326 186 326 186 327 192 c 256,13,14
 328 198 328 198 329 206 c 2,15,-1
 331 221 l 1,16,-1
 334 240 l 2,17,18
 337 257 337 257 338 265 c 2,19,-1
 339 275 l 2,20,21
 343 296 343 296 345 314 c 2,22,-1
 347 324 l 1,23,-1
 348 333 l 1,24,-1
 351 348 l 2,25,26
 351 352 351 352 352 355.5 c 128,-1,27
 353 359 353 359 353 363 c 2,28,-1
 355 373 l 2,29,30
 357 385 357 385 359 397 c 2,31,-1
 360 407 l 2,32,33
 363 424 363 424 366 441 c 2,34,-1
 405 663 l 1,35,-1
 366 663 l 1,36,-1
 366 735 l 1,37,-1
 536 735 l 1,38,-1
 536 663 l 1,39,-1
 486 663 l 1,40,-1
 447 441 l 1,41,-1
 370 0 l 1,42,-1
 263 0 l 1,43,-1
 183 597 l 1,44,45
 176 558 176 558 169 509 c 0,46,47
 167 500 167 500 166 490 c 2,48,-1
 164 476 l 2,49,50
 162 466 162 466 161 456 c 2,51,-1
 159 441 l 2,52,53
 156 426 156 426 154 412 c 2,54,-1
 152 402 l 2,55,56
 150 390 150 390 148 377 c 2,57,-1
 147 368 l 2,58,59
 140 328 140 328 134 294 c 2,60,-1
 95 72 l 1,61,-1
 135 72 l 1,62,-1
 135 0 l 1,63,-1
 -35 0 l 1,0,-1
EndSplineSet
EndChar

StartChar: O
Encoding: 79 79 48
Width: 500
GlyphClass: 2
Flags: W
AnchorPoint: "Anclaje-5" 369 0 basechar 0
AnchorPoint: "Anclaje-4" 499 735 basechar 0
AnchorPoint: "Anclaje-3" 250 367 basechar 0
AnchorPoint: "Anclaje-2" 253 382 basechar 0
AnchorPoint: "Anclaje-1" 185 0 basechar 0
AnchorPoint: "Anclaje-0" 315 735 basechar 0
LayerCount: 2
Fore
SplineSet
197 -8 m 0,0,1
 132 -8 132 -8 89 20 c 0,2,3
 49 45 49 45 32 89 c 0,4,5
 11 142 11 142 24 216 c 2,6,-1
 85 561 l 2,7,8
 94 618 94 618 126 660 c 0,9,10
 154 697 154 697 195 718 c 0,11,12
 242 743 242 743 303 743 c 2,13,-1
 304 743 l 2,14,15
 369 743 369 743 412 715 c 0,16,17
 452 690 452 690 469 646 c 0,18,19
 490 593 490 593 477 519 c 2,20,-1
 416 174 l 2,21,22
 406 117 406 117 375 75 c 0,23,24
 347 38 347 38 306 17 c 0,25,26
 259 -8 259 -8 197 -8 c 0,0,1
198 64 m 0,27,28
 235 64 235 64 264 79 c 0,29,30
 290 93 290 93 309 117 c 0,31,32
 330 146 330 146 338 186 c 2,33,-1
 398 531 l 2,34,35
 407 581 407 581 393 615 c 0,36,37
 383 642 383 642 360 656.5 c 128,-1,38
 337 671 337 671 303 671 c 0,39,40
 266 671 266 671 237 656 c 0,41,42
 210 642 210 642 192 618 c 0,43,44
 171 589 171 589 163 549 c 2,45,-1
 103 204 l 2,46,47
 94 155 94 155 107 120 c 0,48,49
 118 93 118 93 140.5 78.5 c 128,-1,50
 163 64 163 64 198 64 c 0,27,28
EndSplineSet
EndChar

StartChar: P
Encoding: 80 80 49
Width: 500
GlyphClass: 2
Flags: W
AnchorPoint: "Anclaje-5" 369 0 basechar 0
AnchorPoint: "Anclaje-4" 499 735 basechar 0
AnchorPoint: "Anclaje-3" 250 367 basechar 0
AnchorPoint: "Anclaje-2" 253 382 basechar 0
AnchorPoint: "Anclaje-1" 185 0 basechar 0
AnchorPoint: "Anclaje-0" 315 735 basechar 0
LayerCount: 2
Fore
SplineSet
-19 0 m 1,0,-1
 -19 72 l 1,1,-1
 31 72 l 1,2,-1
 135 663 l 1,3,-1
 96 663 l 1,4,-1
 96 735 l 1,5,-1
 296 735 l 2,6,7
 363 735 363 735 408 707 c 0,8,9
 448 681 448 681 466 635 c 0,10,11
 488 581 488 581 475 505 c 0,12,13
 464 443 464 443 432 401 c 0,14,15
 403 363 403 363 361 341 c 0,16,17
 313 315 313 315 250 315 c 2,18,-1
 155 315 l 1,19,-1
 112 72 l 1,20,-1
 151 72 l 1,21,-1
 151 0 l 1,22,-1
 -19 0 l 1,0,-1
250 387 m 2,23,24
 289 387 289 387 319 403 c 0,25,26
 346 418 346 418 366 443 c 0,27,28
 388 473 388 473 396 517 c 0,29,30
 405 569 405 569 390 605 c 0,31,32
 379 633 379 633 355.5 648 c 128,-1,33
 332 663 332 663 296 663 c 2,34,-1
 216 663 l 1,35,-1
 168 387 l 1,36,-1
 250 387 l 2,23,24
EndSplineSet
EndChar

StartChar: Q
Encoding: 81 81 50
Width: 500
GlyphClass: 2
Flags: W
AnchorPoint: "Anclaje-5" 369 0 basechar 0
AnchorPoint: "Anclaje-4" 499 735 basechar 0
AnchorPoint: "Anclaje-3" 250 367 basechar 0
AnchorPoint: "Anclaje-2" 253 382 basechar 0
AnchorPoint: "Anclaje-1" 185 0 basechar 0
AnchorPoint: "Anclaje-0" 315 735 basechar 0
LayerCount: 2
Fore
SplineSet
299 -155 m 2,0,1
 236 -155 236 -155 198 -130 c 0,2,3
 167 -111 167 -111 154.5 -79 c 128,-1,4
 142 -47 142 -47 148 -4 c 1,5,6
 115 3 115 3 89 20 c 0,7,8
 49 45 49 45 32 89 c 0,9,10
 11 142 11 142 24 216 c 2,11,-1
 85 561 l 2,12,13
 94 618 94 618 126 660 c 0,14,15
 154 697 154 697 195 718 c 0,16,17
 242 743 242 743 303 743 c 2,18,-1
 304 743 l 2,19,20
 369 743 369 743 412 715 c 0,21,22
 452 690 452 690 469 646 c 0,23,24
 490 593 490 593 477 519 c 2,25,-1
 416 174 l 2,26,27
 406 117 406 117 375 75 c 0,28,29
 347 38 347 38 306 17 c 0,30,31
 271 -1 271 -1 229 -6 c 1,32,33
 226 -29 226 -29 233 -45.5 c 128,-1,34
 240 -62 240 -62 255 -72 c 0,35,36
 272 -83 272 -83 299 -83 c 2,37,-1
 341 -83 l 1,38,-1
 341 -155 l 1,39,-1
 299 -155 l 2,0,1
198 64 m 0,40,41
 235 64 235 64 264 79 c 0,42,43
 290 93 290 93 309 117 c 0,44,45
 330 146 330 146 338 186 c 2,46,-1
 398 531 l 2,47,48
 407 581 407 581 393 615 c 0,49,50
 383 642 383 642 360 656.5 c 128,-1,51
 337 671 337 671 303 671 c 0,52,53
 266 671 266 671 237 656 c 0,54,55
 210 642 210 642 192 618 c 0,56,57
 171 589 171 589 163 549 c 2,58,-1
 103 204 l 2,59,60
 94 155 94 155 107 120 c 0,61,62
 118 93 118 93 140.5 78.5 c 128,-1,63
 163 64 163 64 198 64 c 0,40,41
EndSplineSet
Substitution2: "Single Substitution lookup 25 subtable" Q.cv43
Substitution2: "'ss11' Style Set 11 lookup 24 subtable" Q.ss11
EndChar

StartChar: R
Encoding: 82 82 51
Width: 500
GlyphClass: 2
Flags: W
AnchorPoint: "Anclaje-5" 369 0 basechar 0
AnchorPoint: "Anclaje-4" 499 735 basechar 0
AnchorPoint: "Anclaje-3" 250 367 basechar 0
AnchorPoint: "Anclaje-2" 144 353 basechar 0
AnchorPoint: "Anclaje-1" 185 0 basechar 0
AnchorPoint: "Anclaje-0" 315 735 basechar 0
LayerCount: 2
Fore
SplineSet
-35 0 m 1,0,-1
 -35 72 l 1,1,-1
 15 72 l 1,2,-1
 118 663 l 1,3,-1
 79 663 l 1,4,-1
 79 735 l 1,5,-1
 302 735 l 2,6,7
 368 735 368 735 411 707 c 0,8,9
 449 682 449 682 468 637 c 0,10,11
 489 584 489 584 476 512 c 0,12,13
 465 452 465 452 435 411 c 0,14,15
 406 374 406 374 366 353 c 0,16,17
 337 338 337 338 304 332 c 1,18,19
 361 171 361 171 369 72 c 1,20,-1
 422 72 l 1,21,-1
 422 0 l 1,22,-1
 319 0 l 1,23,-1
 286 0 l 1,24,25
 304 101 304 101 221 328 c 1,26,-1
 141 328 l 1,27,-1
 96 72 l 1,28,-1
 135 72 l 1,29,-1
 135 0 l 1,30,-1
 -35 0 l 1,0,-1
153 400 m 1,31,-1
 258 400 l 2,32,33
 294 400 294 400 324 415 c 0,34,35
 350 429 350 429 368 453 c 0,36,37
 390 482 390 482 397 524 c 0,38,39
 406 573 406 573 392 607 c 0,40,41
 381 634 381 634 358.5 648.5 c 128,-1,42
 336 663 336 663 302 663 c 2,43,-1
 199 663 l 1,44,-1
 153 400 l 1,31,-1
EndSplineSet
EndChar

StartChar: S
Encoding: 83 83 52
Width: 500
GlyphClass: 2
Flags: W
AnchorPoint: "Anclaje-5" 369 0 basechar 0
AnchorPoint: "Anclaje-4" 499 735 basechar 0
AnchorPoint: "Anclaje-3" 250 367 basechar 0
AnchorPoint: "Anclaje-2" 253 382 basechar 0
AnchorPoint: "Anclaje-1" 185 0 basechar 0
AnchorPoint: "Anclaje-0" 315 735 basechar 0
LayerCount: 2
Fore
SplineSet
196 -8 m 0,0,1
 189 -8 189 -8 182 -8 c 0,2,3
 126 -5 126 -5 87.5 20 c 128,-1,4
 49 45 49 45 32 86 c 0,5,6
 19 120 19 120 24 155 c 1,7,-1
 104 162 l 2,8,9
 103 159 103 159 102 155 c 0,10,11
 98 134 98 134 106 115 c 0,12,13
 115 93 115 93 136 79 c 0,14,15
 160 64 160 64 196 64 c 0,16,17
 228 64 228 64 253 77 c 0,18,19
 277 90 277 90 293 112 c 0,20,21
 313 138 313 138 319 170 c 0,22,23
 325 205 325 205 311 239 c 0,24,25
 294 280 294 280 230 332 c 0,26,27
 139 404 139 404 115 464 c 0,28,29
 93 519 93 519 103 575 c 0,30,31
 112 625 112 625 142 665 c 0,32,33
 168 700 168 700 207 720 c 0,34,35
 250 743 250 743 305 743 c 0,36,37
 370 743 370 743 413 715 c 0,38,39
 452 690 452 690 468 649 c 0,40,41
 482 616 482 616 477 580 c 1,42,-1
 397 573 l 2,43,44
 398 576 398 576 399 580 c 0,45,46
 403 601 403 601 395 620 c 0,47,48
 386 642 386 642 365 656 c 0,49,50
 341 671 341 671 305 671 c 0,51,52
 273 671 273 671 248 658 c 0,53,54
 224 645 224 645 208 623 c 0,55,56
 188 597 188 597 182 565 c 0,57,58
 176 530 176 530 190 496 c 0,59,60
 206 455 206 455 271 403 c 0,61,62
 362 331 362 331 386 271 c 0,63,64
 408 216 408 216 398 160 c 0,65,66
 389 110 389 110 359 70 c 0,67,68
 333 35 333 35 294 15 c 0,69,70
 251 -8 251 -8 196 -8 c 0,0,1
EndSplineSet
EndChar

StartChar: T
Encoding: 84 84 53
Width: 500
GlyphClass: 2
Flags: W
AnchorPoint: "Anclaje-5" 226 0 basechar 0
AnchorPoint: "Anclaje-4" 499 735 basechar 0
AnchorPoint: "Anclaje-3" 250 367 basechar 0
AnchorPoint: "Anclaje-2" 253 382 basechar 0
AnchorPoint: "Anclaje-1" 185 0 basechar 0
AnchorPoint: "Anclaje-0" 315 735 basechar 0
LayerCount: 2
Fore
SplineSet
88 0 m 1,0,-1
 88 72 l 1,1,-1
 158 72 l 1,2,-1
 262 663 l 1,3,-1
 192 663 l 1,4,-1
 179 590 l 1,5,-1
 98 590 l 1,6,-1
 123 735 l 1,7,-1
 507 735 l 1,8,-1
 495 663 l 1,9,-1
 482 590 l 1,10,-1
 401 590 l 1,11,-1
 414 663 l 1,12,-1
 343 663 l 1,13,-1
 239 72 l 1,14,-1
 298 72 l 1,15,-1
 298 0 l 1,16,-1
 88 0 l 1,0,-1
EndSplineSet
EndChar

StartChar: U
Encoding: 85 85 54
Width: 500
GlyphClass: 2
Flags: W
AnchorPoint: "Anclaje-5" 369 0 basechar 0
AnchorPoint: "Anclaje-4" 499 735 basechar 0
AnchorPoint: "Anclaje-3" 250 367 basechar 0
AnchorPoint: "Anclaje-2" 253 382 basechar 0
AnchorPoint: "Anclaje-1" 185 0 basechar 0
AnchorPoint: "Anclaje-0" 315 735 basechar 0
LayerCount: 2
Fore
SplineSet
197 -8 m 0,0,1
 140 -8 140 -8 102.5 16.5 c 128,-1,2
 65 41 65 41 48 84 c 0,3,4
 26 138 26 138 40 216 c 2,5,-1
 118 663 l 1,6,-1
 79 663 l 1,7,-1
 79 735 l 1,8,-1
 249 735 l 1,9,-1
 249 663 l 1,10,-1
 199 663 l 1,11,-1
 119 204 l 2,12,13
 109 149 109 149 123 113 c 0,14,15
 133 88 133 88 153 76 c 0,16,17
 171 64 171 64 198 64 c 0,18,19
 227 64 227 64 250.5 76.5 c 128,-1,20
 274 89 274 89 291 112 c 0,21,22
 313 141 313 141 322 186 c 2,23,-1
 405 663 l 1,24,-1
 366 663 l 1,25,-1
 366 735 l 1,26,-1
 536 735 l 1,27,-1
 536 663 l 1,28,-1
 486 663 l 1,29,-1
 400 174 l 2,30,31
 390 113 390 113 357 70 c 0,32,33
 330 34 330 34 291 14 c 0,34,35
 250 -8 250 -8 197 -8 c 0,0,1
EndSplineSet
EndChar

StartChar: V
Encoding: 86 86 55
Width: 500
GlyphClass: 2
Flags: W
AnchorPoint: "Anclaje-5" 369 0 basechar 0
AnchorPoint: "Anclaje-4" 499 735 basechar 0
AnchorPoint: "Anclaje-3" 250 367 basechar 0
AnchorPoint: "Anclaje-2" 253 382 basechar 0
AnchorPoint: "Anclaje-1" 185 0 basechar 0
AnchorPoint: "Anclaje-0" 315 735 basechar 0
LayerCount: 2
Fore
SplineSet
137 0 m 1,0,1
 83 462 83 462 118 662 c 1,2,-1
 118 663 l 1,3,-1
 79 663 l 1,4,-1
 79 735 l 1,5,-1
 249 735 l 1,6,-1
 249 663 l 1,7,-1
 199 663 l 1,8,-1
 199 662 l 1,9,10
 168 483 168 483 201 98 c 1,11,12
 374 486 374 486 405 662 c 1,13,-1
 405 663 l 1,14,-1
 366 663 l 1,15,-1
 366 735 l 1,16,-1
 536 735 l 1,17,-1
 536 663 l 1,18,-1
 486 663 l 1,19,-1
 486 662 l 1,20,21
 451 462 451 462 234 0 c 1,22,-1
 137 0 l 1,0,1
EndSplineSet
EndChar

StartChar: W
Encoding: 87 87 56
Width: 500
GlyphClass: 2
Flags: W
AnchorPoint: "Anclaje-5" 369 0 basechar 0
AnchorPoint: "Anclaje-4" 499 735 basechar 0
AnchorPoint: "Anclaje-3" 250 367 basechar 0
AnchorPoint: "Anclaje-2" 253 382 basechar 0
AnchorPoint: "Anclaje-1" 185 0 basechar 0
AnchorPoint: "Anclaje-0" 315 735 basechar 0
LayerCount: 2
Fore
SplineSet
74 0 m 1,0,1
 69 383 69 383 99 551 c 2,2,-1
 118 663 l 1,3,-1
 79 663 l 1,4,-1
 79 735 l 1,5,-1
 249 735 l 1,6,-1
 249 663 l 1,7,-1
 199 663 l 1,8,-1
 180 551 l 2,9,10
 157 420 157 420 127 147 c 1,11,-1
 239 441 l 1,12,-1
 288 441 l 1,13,-1
 294 143 l 1,14,15
 362 416 362 416 386 551 c 2,16,-1
 405 663 l 1,17,-1
 366 663 l 1,18,-1
 366 735 l 1,19,-1
 536 735 l 1,20,-1
 536 663 l 1,21,-1
 486 663 l 1,22,-1
 467 551 l 2,23,24
 437 384 437 384 298 0 c 1,25,-1
 249 0 l 1,26,-1
 242 318 l 1,27,-1
 123 0 l 1,28,-1
 74 0 l 1,0,1
EndSplineSet
EndChar

StartChar: X
Encoding: 88 88 57
Width: 500
GlyphClass: 2
Flags: W
AnchorPoint: "Anclaje-5" 369 0 basechar 0
AnchorPoint: "Anclaje-4" 499 735 basechar 0
AnchorPoint: "Anclaje-3" 250 367 basechar 0
AnchorPoint: "Anclaje-2" 253 382 basechar 0
AnchorPoint: "Anclaje-1" 185 0 basechar 0
AnchorPoint: "Anclaje-0" 315 735 basechar 0
LayerCount: 2
Fore
SplineSet
-35 0 m 1,0,-1
 -35 72 l 1,1,-1
 16 72 l 1,2,3
 40 161 40 161 108 247 c 2,4,-1
 206 373 l 1,5,-1
 153 496 l 2,6,7
 116 583 116 583 121 663 c 1,8,-1
 79 663 l 1,9,-1
 79 735 l 1,10,-1
 249 735 l 1,11,-1
 249 663 l 1,12,-1
 202 663 l 1,13,14
 197 593 197 593 226 525 c 2,15,-1
 261 443 l 1,16,-1
 330 533 l 2,17,18
 383 600 383 600 403 663 c 1,19,-1
 366 663 l 1,20,-1
 366 735 l 1,21,-1
 536 735 l 1,22,-1
 536 663 l 1,23,-1
 485 663 l 1,24,25
 460 574 460 574 393 488 c 2,26,-1
 295 362 l 1,27,-1
 348 239 l 2,28,29
 385 152 385 152 380 72 c 1,30,-1
 422 72 l 1,31,-1
 422 0 l 1,32,-1
 252 0 l 1,33,-1
 252 72 l 1,34,-1
 299 72 l 1,35,36
 304 142 304 142 275 211 c 2,37,-1
 240 292 l 1,38,-1
 171 202 l 2,39,40
 118 135 118 135 98 72 c 1,41,-1
 135 72 l 1,42,-1
 135 0 l 1,43,-1
 -35 0 l 1,0,-1
EndSplineSet
EndChar

StartChar: Y
Encoding: 89 89 58
Width: 500
GlyphClass: 2
Flags: W
AnchorPoint: "Anclaje-5" 369 0 basechar 0
AnchorPoint: "Anclaje-4" 499 735 basechar 0
AnchorPoint: "Anclaje-3" 250 367 basechar 0
AnchorPoint: "Anclaje-2" 237 294 basechar 0
AnchorPoint: "Anclaje-1" 185 0 basechar 0
AnchorPoint: "Anclaje-0" 315 735 basechar 0
LayerCount: 2
Fore
SplineSet
108 0 m 1,0,-1
 108 72 l 1,1,-1
 158 72 l 1,2,-1
 196 291 l 1,3,-1
 144 454 l 2,4,5
 108 562 108 562 119 663 c 1,6,-1
 79 663 l 1,7,-1
 79 735 l 1,8,-1
 249 735 l 1,9,-1
 249 663 l 1,10,-1
 200 663 l 1,11,12
 190 568 190 568 220 477 c 2,13,-1
 251 383 l 1,14,-1
 321 486 l 2,15,16
 383 578 383 578 404 663 c 1,17,-1
 366 663 l 1,18,-1
 366 735 l 1,19,-1
 536 735 l 1,20,-1
 536 663 l 1,21,-1
 485 663 l 1,22,23
 461 554 461 554 387 445 c 2,24,-1
 275 280 l 1,25,-1
 239 72 l 1,26,-1
 278 72 l 1,27,-1
 278 0 l 1,28,-1
 108 0 l 1,0,-1
EndSplineSet
EndChar

StartChar: Z
Encoding: 90 90 59
Width: 500
GlyphClass: 2
Flags: W
AnchorPoint: "Anclaje-5" 369 0 basechar 0
AnchorPoint: "Anclaje-4" 499 735 basechar 0
AnchorPoint: "Anclaje-3" 250 367 basechar 0
AnchorPoint: "Anclaje-2" 253 382 basechar 0
AnchorPoint: "Anclaje-1" 185 0 basechar 0
AnchorPoint: "Anclaje-0" 315 735 basechar 0
LayerCount: 2
Fore
SplineSet
2 0 m 1,0,-1
 14 72 l 1,1,-1
 393 663 l 1,2,-1
 200 663 l 1,3,-1
 187 590 l 1,4,-1
 106 590 l 1,5,-1
 131 735 l 1,6,-1
 499 735 l 1,7,-1
 487 663 l 1,8,-1
 107 72 l 1,9,-1
 301 72 l 1,10,-1
 314 145 l 1,11,-1
 395 145 l 1,12,-1
 370 0 l 1,13,-1
 2 0 l 1,0,-1
EndSplineSet
EndChar

StartChar: a
Encoding: 97 97 60
Width: 500
GlyphClass: 2
Flags: W
AnchorPoint: "Anclaje-6" 333 0 basechar 0
AnchorPoint: "Anclaje-5" 369 0 basechar 0
AnchorPoint: "Anclaje-4" 463 530 basechar 0
AnchorPoint: "Anclaje-3" 232 265 basechar 0
AnchorPoint: "Anclaje-2" 234 275 basechar 0
AnchorPoint: "Anclaje-1" 185 0 basechar 0
AnchorPoint: "Anclaje-0" 279 530 basechar 0
LayerCount: 2
Fore
SplineSet
159 -8 m 0,0,1
 116 -8 116 -8 87 11 c 0,2,3
 54 32 54 32 36 75 c 0,4,5
 10 141 10 141 36 289 c 0,6,7
 57 406 57 406 96 457 c 0,8,9
 125 496 125 496 165 517 c 128,-1,10
 205 538 205 538 252 538 c 0,11,12
 290 538 290 538 316 522 c 0,13,14
 345 502 345 502 362 462 c 0,15,16
 365 455 365 455 367 447 c 2,17,-1
 382 530 l 1,18,-1
 463 530 l 1,19,-1
 383 72 l 1,20,-1
 422 72 l 1,21,-1
 422 0 l 1,22,-1
 289 0 l 1,23,-1
 301 67 l 1,24,-1
 300 66 l 1,25,26
 271 29 271 29 235 10 c 0,27,28
 201 -8 201 -8 159 -8 c 0,0,1
197 64 m 0,29,30
 224 64 224 64 246 75 c 0,31,32
 269 88 269 88 288 112 c 0,33,34
 312 144 312 144 323 193 c 2,35,-1
 331 238 l 1,36,-1
 340 293 l 2,37,38
 354 371 354 371 335 417 c 0,39,40
 325 443 325 443 305 456 c 0,41,42
 290 466 290 466 265 466 c 0,43,44
 235 466 235 466 209 452 c 0,45,46
 181 438 181 438 161 411 c 0,47,48
 132 373 132 373 115 277 c 0,49,50
 95 164 95 164 113 121 c 0,51,52
 124 92 124 92 147 77 c 0,53,54
 168 64 168 64 197 64 c 0,29,30
EndSplineSet
Substitution2: "'ss11' Style Set 11 lookup 18 subtable" a.ss11
Substitution2: "'ss07' Style Set 7 lookup 17 subtable" a.ss07
EndChar

StartChar: b
Encoding: 98 98 61
Width: 500
GlyphClass: 2
Flags: W
AnchorPoint: "Anclaje-5" 369 0 basechar 0
AnchorPoint: "Anclaje-4" 499 735 basechar 0
AnchorPoint: "Anclaje-3" 250 367 basechar 0
AnchorPoint: "Anclaje-2" 253 382 basechar 0
AnchorPoint: "Anclaje-1" 185 0 basechar 0
AnchorPoint: "Anclaje-0" 315 735 basechar 0
LayerCount: 2
Fore
SplineSet
213 -8 m 0,0,1
 175 -8 175 -8 149 8 c 0,2,3
 119 28 119 28 103 68 c 0,4,5
 100 75 100 75 98 83 c 2,6,-1
 83 0 l 1,7,-1
 -35 0 l 1,8,-1
 -35 72 l 1,9,-1
 15 72 l 1,10,-1
 118 663 l 1,11,-1
 79 663 l 1,12,-1
 79 735 l 1,13,-1
 212 735 l 1,14,-1
 165 464 l 1,15,16
 193 501 193 501 230 520 c 0,17,18
 264 538 264 538 306 538 c 256,19,20
 348 538 348 538 378 519 c 0,21,22
 412 497 412 497 428 455 c 0,23,24
 455 390 455 390 429 241 c 0,25,26
 408 124 408 124 369 73 c 0,27,28
 340 34 340 34 300 13 c 128,-1,29
 260 -8 260 -8 213 -8 c 0,0,1
200 64 m 0,30,31
 230 64 230 64 256 78 c 0,32,33
 284 92 284 92 304 119 c 0,34,35
 333 157 333 157 350 253 c 0,36,37
 369 366 369 366 352 409 c 0,38,39
 341 438 341 438 318 453 c 0,40,41
 297 466 297 466 267 466 c 0,42,43
 241 466 241 466 219 455 c 0,44,45
 195 442 195 442 177 418 c 0,46,47
 153 386 153 386 142 339 c 2,48,-1
 121 218 l 2,49,50
 113 154 113 154 129 113 c 0,51,52
 140 87 140 87 159 74 c 0,53,54
 175 64 175 64 200 64 c 0,30,31
EndSplineSet
EndChar

StartChar: c
Encoding: 99 99 62
Width: 500
GlyphClass: 2
Flags: W
AnchorPoint: "Anclaje-5" 369 0 basechar 0
AnchorPoint: "Anclaje-4" 463 530 basechar 0
AnchorPoint: "Anclaje-3" 232 265 basechar 0
AnchorPoint: "Anclaje-2" 234 275 basechar 0
AnchorPoint: "Anclaje-1" 185 0 basechar 0
AnchorPoint: "Anclaje-0" 279 530 basechar 0
LayerCount: 2
Fore
SplineSet
210 -8 m 0,0,1
 143 -8 143 -8 98 20 c 0,2,3
 56 48 56 48 37 96 c 0,4,5
 12 157 12 157 36 287 c 0,6,7
 56 402 56 402 94 453 c 0,8,9
 125 494 125 494 166 515 c 0,10,11
 209 538 209 538 263 538 c 0,12,13
 331 538 331 538 374 510 c 0,14,15
 412 486 412 486 429 444 c 0,16,17
 442 412 442 412 441 375 c 1,18,-1
 363 359 l 1,19,20
 364 387 364 387 355 410 c 0,21,22
 344 436 344 436 322 451 c 0,23,24
 298 466 298 466 263 466 c 0,25,26
 233 466 233 466 208 453 c 0,27,28
 182 439 182 439 161 412 c 0,29,30
 132 373 132 373 115 276 c 0,31,32
 96 169 96 169 113 126 c 0,33,34
 125 96 125 96 149.5 80 c 128,-1,35
 174 64 174 64 210 64 c 0,36,37
 241 64 241 64 268 78 c 0,38,39
 297 93 297 93 320 124 c 0,40,41
 334 142 334 142 344 164 c 1,42,-1
 415 132 l 1,43,44
 403 107 403 107 386 84 c 0,45,46
 352 39 352 39 306 15 c 0,47,48
 263 -8 263 -8 210 -8 c 0,0,1
EndSplineSet
EndChar

StartChar: d
Encoding: 100 100 63
Width: 500
GlyphClass: 2
Flags: W
AnchorPoint: "Anclaje-5" 369 0 basechar 0
AnchorPoint: "Anclaje-4" 499 735 basechar 0
AnchorPoint: "Anclaje-3" 250 367 basechar 0
AnchorPoint: "Anclaje-2" 253 382 basechar 0
AnchorPoint: "Anclaje-1" 185 0 basechar 0
AnchorPoint: "Anclaje-0" 315 735 basechar 0
LayerCount: 2
Fore
SplineSet
159 -8 m 0,0,1
 116 -8 116 -8 87 11 c 0,2,3
 54 32 54 32 36 75 c 0,4,5
 10 141 10 141 36 289 c 0,6,7
 57 406 57 406 96 457 c 0,8,9
 125 496 125 496 165 517 c 128,-1,10
 205 538 205 538 252 538 c 0,11,12
 290 538 290 538 316 522 c 0,13,14
 345 502 345 502 362 462 c 0,15,16
 365 455 365 455 367 447 c 2,17,-1
 405 663 l 1,18,-1
 366 663 l 1,19,-1
 366 735 l 1,20,-1
 499 735 l 1,21,-1
 383 72 l 1,22,-1
 422 72 l 1,23,-1
 422 0 l 1,24,-1
 289 0 l 1,25,-1
 300 66 l 1,26,27
 271 29 271 29 235 10 c 0,28,29
 201 -8 201 -8 159 -8 c 0,0,1
197 64 m 0,30,31
 224 64 224 64 246 75 c 0,32,33
 269 88 269 88 288 112 c 0,34,35
 312 145 312 145 323 193 c 2,36,-1
 331 237 l 1,37,-1
 340 293 l 2,38,39
 354 371 354 371 335 417 c 0,40,41
 325 443 325 443 305 456 c 0,42,43
 290 466 290 466 265 466 c 0,44,45
 235 466 235 466 209 452 c 0,46,47
 181 438 181 438 161 411 c 0,48,49
 132 373 132 373 115 277 c 0,50,51
 95 164 95 164 113 121 c 0,52,53
 124 92 124 92 147 77 c 0,54,55
 168 64 168 64 197 64 c 0,30,31
EndSplineSet
EndChar

StartChar: e
Encoding: 101 101 64
Width: 500
GlyphClass: 2
Flags: W
AnchorPoint: "Anclaje-5" 369 0 basechar 0
AnchorPoint: "Anclaje-4" 463 530 basechar 0
AnchorPoint: "Anclaje-3" 232 265 basechar 0
AnchorPoint: "Anclaje-2" 234 275 basechar 0
AnchorPoint: "Anclaje-1" 185 0 basechar 0
AnchorPoint: "Anclaje-0" 279 530 basechar 0
LayerCount: 2
Fore
SplineSet
215 -8 m 0,0,1
 207 -8 207 -8 200 -8 c 0,2,3
 140 -5 140 -5 99 21 c 0,4,5
 56 49 56 49 37 98 c 0,6,7
 13 158 13 158 35 286 c 0,8,9
 56 402 56 402 94 452 c 0,10,11
 124 492 124 492 167 515 c 0,12,13
 211 538 211 538 268 538 c 0,14,15
 328 538 328 538 369 512 c 0,16,17
 409 486 409 486 428 438 c 0,18,19
 452 378 452 378 437 289 c 2,20,-1
 426 229 l 1,21,-1
 108 229 l 1,22,23
 100 160 100 160 113 128.5 c 128,-1,24
 126 97 126 97 152 80 c 0,25,26
 177 64 177 64 215 64 c 0,27,28
 250 64 250 64 277 79 c 0,29,30
 307 94 307 94 329 124 c 0,31,32
 332 128 332 128 338 137 c 2,33,-1
 340 139 l 1,34,-1
 411 107 l 1,35,36
 404 96 404 96 397 86 c 0,37,38
 363 40 363 40 316.5 16 c 128,-1,39
 270 -8 270 -8 215 -8 c 0,0,1
119 301 m 1,40,-1
 358 301 l 1,41,42
 369 367 369 367 352 409 c 0,43,44
 341 438 341 438 318 453 c 0,45,46
 297 466 297 466 267 466 c 0,47,48
 235 466 235 466 209 452 c 0,49,50
 181 438 181 438 161 411 c 0,51,52
 136 378 136 378 119 301 c 1,40,-1
EndSplineSet
EndChar

StartChar: f
Encoding: 102 102 65
Width: 500
GlyphClass: 2
Flags: W
AnchorPoint: "Anclaje-5" 333 -205 basechar 0
AnchorPoint: "Anclaje-4" 499 735 basechar 0
AnchorPoint: "Anclaje-3" 232 265 basechar 0
AnchorPoint: "Anclaje-2" 235 283 basechar 0
AnchorPoint: "Anclaje-1" 149 -205 basechar 0
AnchorPoint: "Anclaje-0" 315 735 basechar 0
LayerCount: 2
Fore
SplineSet
-12 -195 m 1,0,-1
 -12 -123 l 1,1,2
 48 -123 48 -123 80 -107 c 0,3,4
 102 -95 102 -95 117 -75 c 0,5,6
 137 -49 137 -49 146 6 c 2,7,-1
 221 428 l 1,8,-1
 93 428 l 1,9,-1
 93 500 l 1,10,-1
 234 500 l 1,11,-1
 249 586 l 2,12,13
 262 665 262 665 291 704 c 0,14,15
 314 734 314 734 346 751 c 0,16,17
 393 775 393 775 486 775 c 1,18,-1
 486 703 l 1,19,20
 425 703 425 703 394 687 c 0,21,22
 372 675 372 675 357 655 c 0,23,24
 337 629 337 629 327 574 c 2,25,-1
 314 500 l 1,26,-1
 443 500 l 1,27,-1
 443 428 l 1,28,-1
 301 428 l 1,29,-1
 225 -6 l 2,30,31
 211 -86 211 -86 182 -124 c 0,32,33
 160 -154 160 -154 127 -171 c 0,34,35
 81 -195 81 -195 -12 -195 c 1,0,-1
EndSplineSet
Substitution2: "Single Substitution lookup 29 subtable" f.cv53
Substitution2: "'ss11' Style Set 11 lookup 28 subtable" f.ss11
EndChar

StartChar: g
Encoding: 103 103 66
Width: 500
GlyphClass: 2
Flags: W
AnchorPoint: "Anclaje-5" 333 -205 basechar 0
AnchorPoint: "Anclaje-4" 463 530 basechar 0
AnchorPoint: "Anclaje-3" 214 162 basechar 0
AnchorPoint: "Anclaje-2" 216 177 basechar 0
AnchorPoint: "Anclaje-1" 149 -205 basechar 0
AnchorPoint: "Anclaje-0" 279 530 basechar 0
LayerCount: 2
Fore
SplineSet
152 -213 m 0,0,1
 85 -213 85 -213 42 -185 c 0,2,3
 4 -161 4 -161 -13 -119 c 0,4,5
 -18 -106 -18 -106 -20 -95 c 1,6,-1
 53 -65 l 1,7,8
 54 -74 54 -74 58 -85 c 0,9,10
 69 -111 69 -111 91 -126 c 0,11,12
 116 -141 116 -141 152 -141 c 0,13,14
 181 -141 181 -141 206 -128 c 0,15,16
 232 -114 232 -114 251 -88 c 0,17,18
 279 -51 279 -51 290 6 c 2,19,-1
 300 66 l 1,20,21
 271 29 271 29 235 10 c 0,22,23
 201 -8 201 -8 159 -8 c 0,24,25
 116 -8 116 -8 87 11 c 0,26,27
 54 32 54 32 36 75 c 0,28,29
 10 141 10 141 36 289 c 0,30,31
 57 406 57 406 96 457 c 0,32,33
 125 496 125 496 165 517 c 128,-1,34
 205 538 205 538 252 538 c 0,35,36
 290 538 290 538 316 522 c 0,37,38
 345 502 345 502 362 462 c 0,39,40
 365 455 365 455 367 447 c 2,41,-1
 382 530 l 1,42,-1
 500 530 l 1,43,-1
 500 458 l 1,44,-1
 450 458 l 1,45,-1
 369 -6 l 2,46,47
 355 -79 355 -79 318 -130 c 0,48,49
 288 -169 288 -169 247 -191 c 0,50,51
 204 -213 204 -213 152 -213 c 0,0,1
197 64 m 0,52,53
 224 64 224 64 246 75 c 0,54,55
 269 88 269 88 288 112 c 0,56,57
 312 144 312 144 323 192 c 2,58,-1
 332 246 l 1,59,-1
 340 293 l 2,60,61
 354 371 354 371 335 417 c 0,62,63
 325 443 325 443 305 456 c 0,64,65
 290 466 290 466 265 466 c 0,66,67
 235 466 235 466 209 452 c 0,68,69
 181 438 181 438 161 411 c 0,70,71
 132 373 132 373 115 277 c 0,72,73
 95 164 95 164 113 121 c 0,74,75
 124 92 124 92 147 77 c 0,76,77
 168 64 168 64 197 64 c 0,52,53
EndSplineSet
Substitution2: "'ss05' Estilo 5 lookup 23 subtable" g.ss05
Substitution2: "'ss09' Style Set 9 lookup 22 subtable" g.ss09
Substitution2: "'ss11' Style Set 11 lookup 21 subtable" g.ss11
EndChar

StartChar: h
Encoding: 104 104 67
Width: 500
GlyphClass: 2
Flags: W
AnchorPoint: "Anclaje-5" 369 0 basechar 0
AnchorPoint: "Anclaje-4" 499 735 basechar 0
AnchorPoint: "Anclaje-3" 250 367 basechar 0
AnchorPoint: "Anclaje-2" 253 382 basechar 0
AnchorPoint: "Anclaje-1" 185 0 basechar 0
AnchorPoint: "Anclaje-0" 315 735 basechar 0
LayerCount: 2
Fore
SplineSet
2 0 m 1,0,-1
 118 663 l 1,1,-1
 79 663 l 1,2,-1
 79 735 l 1,3,-1
 212 735 l 1,4,-1
 165 465 l 1,5,6
 193 501 193 501 229 520 c 0,7,8
 263 538 263 538 304 538 c 0,9,10
 342 538 342 538 367 522 c 0,11,12
 397 502 397 502 413 462 c 0,13,14
 439 397 439 397 421 289 c 2,15,-1
 383 72 l 1,16,-1
 422 72 l 1,17,-1
 422 0 l 1,18,-1
 289 0 l 1,19,-1
 342 301 l 2,20,21
 354 373 354 373 337 417 c 0,22,23
 326 443 326 443 307 455 c 0,24,25
 290 466 290 466 266 466 c 0,26,27
 240 466 240 466 218 455 c 0,28,29
 194 442 194 442 176 418 c 0,30,31
 152 386 152 386 142 339 c 1,32,-1
 141 330 l 1,33,-1
 141 329 l 1,34,-1
 83 0 l 1,35,-1
 2 0 l 1,0,-1
EndSplineSet
EndChar

StartChar: i
Encoding: 105 105 68
Width: 500
GlyphClass: 2
Flags: W
AnchorPoint: "Anclaje-5" 369 0 basechar 0
AnchorPoint: "Anclaje-4" 463 530 basechar 0
AnchorPoint: "Anclaje-3" 232 265 basechar 0
AnchorPoint: "Anclaje-2" 234 275 basechar 0
AnchorPoint: "Anclaje-1" 278 0 basechar 0
AnchorPoint: "Anclaje-0" 305 743 basechar 0
LayerCount: 2
Fore
SplineSet
295 623 m 256,0,1
 275 623 275 623 261 631 c 0,2,3
 248 638 248 638 241 651 c 0,4,5
 233 665 233 665 233 685 c 128,-1,6
 233 705 233 705 241 719 c 0,7,8
 248 732 248 732 261 739 c 0,9,10
 275 748 275 748 295 748 c 0,11,12
 315 747 315 747 330 739 c 0,13,14
 342 732 342 732 350 719 c 0,15,16
 358 705 358 705 358 685 c 128,-1,17
 358 665 358 665 350 651 c 0,18,19
 342 638 342 638 330 631 c 0,20,21
 315 623 315 623 295 623 c 256,0,1
293 -8 m 0,22,23
 244 -8 244 -8 212 12.5 c 128,-1,24
 180 33 180 33 164 71 c 0,25,26
 144 121 144 121 157 193 c 2,27,-1
 204 458 l 1,28,-1
 82 458 l 1,29,-1
 82 530 l 1,30,-1
 298 530 l 1,31,-1
 236 180 l 2,32,33
 227 131 227 131 240 101 c 0,34,35
 247 82 247 82 262 72 c 0,36,37
 274 64 274 64 293 64 c 0,38,39
 308 64 308 64 320 71 c 0,40,41
 337 79 337 79 351 98 c 0,42,43
 367 119 367 119 378 150 c 1,44,-1
 450 120 l 1,45,46
 437 87 437 87 417 59 c 0,47,48
 390 25 390 25 358 8 c 0,49,50
 328 -8 328 -8 293 -8 c 0,22,23
EndSplineSet
Substitution2: "'cv04' Character Variants 04 lookup 10 subtable" i.cv04
Substitution2: "'ss11' Style Set 11 lookup 9 subtable" i.ss11
Substitution2: "'ss07' Style Set 7 lookup 8 subtable" i.ss07
Substitution2: "'ss10' Style Set 10 lookup 7 subtable" i.ss10
Substitution2: "Single Substitution lookup 0 subtable" dotlessi
EndChar

StartChar: j
Encoding: 106 106 69
Width: 500
GlyphClass: 2
Flags: W
AnchorPoint: "Anclaje-5" 333 -205 basechar 0
AnchorPoint: "Anclaje-4" 463 530 basechar 0
AnchorPoint: "Anclaje-3" 214 162 basechar 0
AnchorPoint: "Anclaje-2" 281 265 basechar 0
AnchorPoint: "Anclaje-1" 149 -205 basechar 0
AnchorPoint: "Anclaje-0" 366 743 basechar 0
LayerCount: 2
Fore
SplineSet
356 623 m 256,0,1
 336 623 336 623 322.5 630.5 c 128,-1,2
 309 638 309 638 302 651 c 0,3,4
 294 664 294 664 293 685 c 0,5,6
 294 706 294 706 302 719 c 0,7,8
 309 732 309 732 322.5 740 c 128,-1,9
 336 748 336 748 356 748 c 256,10,11
 376 748 376 748 389.5 740 c 128,-1,12
 403 732 403 732 410 719 c 0,13,14
 419 705 419 705 418 685 c 0,15,16
 419 665 419 665 410 651 c 0,17,18
 403 638 403 638 389.5 630.5 c 128,-1,19
 376 623 376 623 356 623 c 256,0,1
92 -213 m 0,20,21
 31 -213 31 -213 -8 -188 c 0,22,23
 -42 -166 -42 -166 -57 -129 c 0,24,25
 -65 -108 -65 -108 -67 -85 c 1,26,-1
 10 -64 l 1,27,28
 10 -80 10 -80 16 -95 c 0,29,30
 25 -117 25 -117 43 -128 c 0,31,32
 63 -141 63 -141 92 -141 c 0,33,34
 116 -141 116 -141 135 -131 c 0,35,36
 156 -120 156 -120 173 -98 c 0,37,38
 196 -67 196 -67 205 -19 c 2,39,-1
 289 458 l 1,40,-1
 159 458 l 1,41,-1
 159 530 l 1,42,-1
 383 530 l 1,43,-1
 284 -31 l 2,44,45
 272 -95 272 -95 239 -139 c 0,46,47
 213 -174 213 -174 176 -193.5 c 128,-1,48
 139 -213 139 -213 92 -213 c 0,20,21
EndSplineSet
Substitution2: "Single Substitution lookup 0 subtable" uni0237
EndChar

StartChar: k
Encoding: 107 107 70
Width: 500
GlyphClass: 2
Flags: W
AnchorPoint: "Anclaje-5" 369 0 basechar 0
AnchorPoint: "Anclaje-4" 499 735 basechar 0
AnchorPoint: "Anclaje-3" 250 367 basechar 0
AnchorPoint: "Anclaje-2" 253 382 basechar 0
AnchorPoint: "Anclaje-1" 185 0 basechar 0
AnchorPoint: "Anclaje-0" 315 735 basechar 0
LayerCount: 2
Fore
SplineSet
2 0 m 1,0,-1
 118 663 l 1,1,-1
 79 663 l 1,2,-1
 79 735 l 1,3,-1
 212 735 l 1,4,-1
 136 301 l 1,5,6
 330 472 330 472 364 517 c 0,7,8
 369 524 369 524 370 530 c 1,9,-1
 396 530 l 1,10,-1
 494 530 l 1,11,-1
 494 458 l 1,12,-1
 406 458 l 1,13,14
 359 409 359 409 275 331 c 1,15,16
 341 156 341 156 365 72 c 1,17,-1
 430 72 l 1,18,-1
 430 0 l 1,19,-1
 337 0 l 1,20,-1
 297 0 l 1,21,22
 303 37 303 37 213 272 c 1,23,24
 168 231 168 231 115 182 c 1,25,-1
 83 0 l 1,26,-1
 2 0 l 1,0,-1
EndSplineSet
EndChar

StartChar: l
Encoding: 108 108 71
Width: 500
GlyphClass: 2
Flags: W
AnchorPoint: "Anclaje-5" 369 0 basechar 0
AnchorPoint: "Anclaje-4" 499 735 basechar 0
AnchorPoint: "Anclaje-3" 250 367 basechar 0
AnchorPoint: "Anclaje-2" 215 382 basechar 0
AnchorPoint: "Anclaje-1" 271 0 basechar 0
AnchorPoint: "Anclaje-0" 277 735 basechar 0
LayerCount: 2
Fore
SplineSet
287 -8 m 0,0,1
 237 -8 237 -8 205 13 c 0,2,3
 171 34 171 34 156 74 c 0,4,5
 134 127 134 127 148 205 c 2,6,-1
 229 663 l 1,7,-1
 131 663 l 1,8,-1
 131 735 l 1,9,-1
 323 735 l 1,10,-1
 227 192 l 2,11,12
 217 137 217 137 231 103 c 0,13,14
 239 82 239 82 255 72 c 0,15,16
 268 64 268 64 287 64 c 0,17,18
 303 64 303 64 316 71 c 0,19,20
 333 80 333 80 349 101 c 0,21,22
 368 126 368 126 379 161 c 1,23,-1
 452 132 l 1,24,25
 438 92 438 92 414 62 c 0,26,27
 388 26 388 26 353 8 c 0,28,29
 323 -8 323 -8 287 -8 c 0,0,1
EndSplineSet
Substitution2: "Single Substitution lookup 16 subtable" l.cv28
Substitution2: "Single Substitution lookup 15 subtable" l.cv27
Substitution2: "'ss09' Style Set 9 lookup 14 subtable" l.ss09
Substitution2: "'ss11' Style Set 11 lookup 13 subtable" l.ss11
Substitution2: "'ss07' Style Set 7 lookup 12 subtable" l.ss07
Substitution2: "'ss10' Style Set 10 lookup 11 subtable" l.ss10
EndChar

StartChar: m
Encoding: 109 109 72
Width: 500
GlyphClass: 2
Flags: W
AnchorPoint: "Anclaje-5" 369 0 basechar 0
AnchorPoint: "Anclaje-4" 463 530 basechar 0
AnchorPoint: "Anclaje-3" 232 265 basechar 0
AnchorPoint: "Anclaje-2" 234 275 basechar 0
AnchorPoint: "Anclaje-1" 185 0 basechar 0
AnchorPoint: "Anclaje-0" 279 530 basechar 0
LayerCount: 2
Fore
SplineSet
-6 0 m 1,0,-1
 74 458 l 1,1,-1
 43 458 l 1,2,-1
 43 530 l 1,3,-1
 168 530 l 1,4,-1
 162 498 l 1,5,6
 178 520 178 520 198 530 c 0,7,8
 213 538 213 538 231 538 c 256,9,10
 249 538 249 538 262 530 c 0,11,12
 279 519 279 519 288 496 c 0,13,14
 293 484 293 484 295 469 c 1,15,16
 303 485 303 485 313 498 c 0,17,18
 330 520 330 520 349 530 c 0,19,20
 365 538 365 538 382 538 c 0,21,22
 401 538 401 538 414 530 c 0,23,24
 430 519 430 519 440 496 c 0,25,26
 457 452 457 452 444 376 c 2,27,-1
 391 72 l 1,28,-1
 422 72 l 1,29,-1
 422 0 l 1,30,-1
 297 0 l 1,31,-1
 365 390 l 2,32,33
 375 440 375 440 359 459 c 0,34,35
 353 466 353 466 344 466 c 0,36,37
 336 466 336 466 329 460 c 0,38,39
 303 438 303 438 290 362 c 1,40,-1
 289 361 l 1,41,-1
 226 0 l 1,42,-1
 145 0 l 1,43,-1
 214 390 l 2,44,45
 223 440 223 440 208 459 c 0,46,47
 202 466 202 466 192 466 c 0,48,49
 184 466 184 466 178 460 c 0,50,51
 155 441 155 441 142 380 c 2,52,-1
 75 0 l 1,53,-1
 -6 0 l 1,0,-1
EndSplineSet
Substitution2: "Single Substitution lookup 27 subtable" m.cv26
Substitution2: "'ss11' Style Set 11 lookup 26 subtable" m.ss11
EndChar

StartChar: n
Encoding: 110 110 73
Width: 500
GlyphClass: 2
Flags: W
AnchorPoint: "Anclaje-5" 369 0 basechar 0
AnchorPoint: "Anclaje-4" 463 530 basechar 0
AnchorPoint: "Anclaje-3" 232 265 basechar 0
AnchorPoint: "Anclaje-2" 234 275 basechar 0
AnchorPoint: "Anclaje-1" 185 0 basechar 0
AnchorPoint: "Anclaje-0" 279 530 basechar 0
LayerCount: 2
Fore
SplineSet
2 0 m 1,0,-1
 82 458 l 1,1,-1
 43 458 l 1,2,-1
 43 530 l 1,3,-1
 176 530 l 1,4,-1
 165 465 l 1,5,6
 193 501 193 501 229 520 c 0,7,8
 263 538 263 538 304 538 c 0,9,10
 342 538 342 538 367 522 c 0,11,12
 397 502 397 502 413 462 c 0,13,14
 439 397 439 397 421 289 c 2,15,-1
 383 72 l 1,16,-1
 422 72 l 1,17,-1
 422 0 l 1,18,-1
 289 0 l 1,19,-1
 342 301 l 2,20,21
 354 373 354 373 337 417 c 0,22,23
 326 443 326 443 307 455 c 0,24,25
 290 466 290 466 266 466 c 0,26,27
 240 466 240 466 218 455 c 0,28,29
 194 442 194 442 176 418 c 0,30,31
 152 386 152 386 142 338 c 2,32,-1
 141 331 l 1,33,-1
 141 329 l 1,34,-1
 83 0 l 1,35,-1
 2 0 l 1,0,-1
EndSplineSet
EndChar

StartChar: o
Encoding: 111 111 74
Width: 500
GlyphClass: 2
Flags: W
AnchorPoint: "Anclaje-5" 369 0 basechar 0
AnchorPoint: "Anclaje-4" 463 530 basechar 0
AnchorPoint: "Anclaje-3" 232 265 basechar 0
AnchorPoint: "Anclaje-2" 234 275 basechar 0
AnchorPoint: "Anclaje-1" 185 0 basechar 0
AnchorPoint: "Anclaje-0" 279 530 basechar 0
LayerCount: 2
Fore
SplineSet
197 -8 m 0,0,1
 137 -8 137 -8 96.5 18 c 128,-1,2
 56 44 56 44 37 92 c 0,3,4
 12 153 12 153 36 288 c 0,5,6
 56 401 56 401 94 452 c 0,7,8
 124 492 124 492 167 515 c 0,9,10
 211 538 211 538 268 538 c 0,11,12
 328 538 328 538 369 512 c 0,13,14
 409 486 409 486 428 438 c 0,15,16
 453 377 453 377 429 242 c 0,17,18
 409 129 409 129 371 78 c 0,19,20
 340 38 340 38 298 15 c 0,21,22
 253 -8 253 -8 197 -8 c 0,0,1
198 64 m 0,23,24
 230 64 230 64 256 78 c 0,25,26
 284 92 284 92 304 119 c 0,27,28
 333 157 333 157 350 252 c 0,29,30
 369 366 369 366 352 409 c 0,31,32
 340 438 340 438 318 453 c 0,33,34
 297 466 297 466 267 466 c 0,35,36
 235 466 235 466 209 452 c 0,37,38
 181 438 181 438 161 411 c 0,39,40
 132 373 132 373 115 278 c 0,41,42
 95 164 95 164 113 121 c 0,43,44
 124 92 124 92 147 77 c 0,45,46
 168 64 168 64 198 64 c 0,23,24
EndSplineSet
EndChar

StartChar: p
Encoding: 112 112 75
Width: 500
GlyphClass: 2
Flags: W
AnchorPoint: "Anclaje-5" 333 -205 basechar 0
AnchorPoint: "Anclaje-4" 463 530 basechar 0
AnchorPoint: "Anclaje-3" 214 162 basechar 0
AnchorPoint: "Anclaje-2" 216 177 basechar 0
AnchorPoint: "Anclaje-1" 149 -205 basechar 0
AnchorPoint: "Anclaje-0" 279 530 basechar 0
LayerCount: 2
Fore
SplineSet
-71 -205 m 1,0,-1
 -71 -133 l 1,1,-1
 -22 -133 l 1,2,-1
 82 458 l 1,3,-1
 43 458 l 1,4,-1
 43 530 l 1,5,-1
 176 530 l 1,6,-1
 164 463 l 1,7,-1
 165 464 l 1,8,9
 193 501 193 501 230 520 c 0,10,11
 264 538 264 538 306 538 c 256,12,13
 348 538 348 538 378 519 c 0,14,15
 412 497 412 497 428 455 c 0,16,17
 455 390 455 390 429 241 c 0,18,19
 408 124 408 124 369 73 c 0,20,21
 340 34 340 34 300 13 c 128,-1,22
 260 -8 260 -8 213 -8 c 0,23,24
 175 -8 175 -8 149 8 c 0,25,26
 119 28 119 28 103 68 c 0,27,28
 100 76 100 76 97 84 c 1,29,-1
 59 -133 l 1,30,-1
 99 -133 l 1,31,-1
 99 -205 l 1,32,-1
 -71 -205 l 1,0,-1
200 64 m 0,33,34
 230 64 230 64 256 78 c 0,35,36
 284 92 284 92 304 119 c 0,37,38
 333 157 333 157 350 253 c 0,39,40
 369 366 369 366 352 409 c 0,41,42
 341 438 341 438 318 453 c 0,43,44
 297 466 297 466 267 466 c 0,45,46
 241 466 241 466 219 455 c 0,47,48
 195 442 195 442 177 418 c 0,49,50
 151 383 151 383 140 329 c 2,51,-1
 123 230 l 2,52,53
 112 157 112 157 129 113 c 0,54,55
 140 87 140 87 159 74 c 0,56,57
 175 64 175 64 200 64 c 0,33,34
EndSplineSet
EndChar

StartChar: q
Encoding: 113 113 76
Width: 500
GlyphClass: 2
Flags: W
AnchorPoint: "Anclaje-5" 333 -205 basechar 0
AnchorPoint: "Anclaje-4" 463 530 basechar 0
AnchorPoint: "Anclaje-3" 214 162 basechar 0
AnchorPoint: "Anclaje-2" 216 177 basechar 0
AnchorPoint: "Anclaje-1" 149 -205 basechar 0
AnchorPoint: "Anclaje-0" 279 530 basechar 0
LayerCount: 2
Fore
SplineSet
216 -205 m 1,0,-1
 216 -133 l 1,1,-1
 266 -133 l 1,2,-1
 301 67 l 1,3,-1
 300 66 l 1,4,5
 271 29 271 29 235 10 c 0,6,7
 201 -8 201 -8 159 -8 c 0,8,9
 116 -8 116 -8 87 11 c 0,10,11
 54 32 54 32 36 75 c 0,12,13
 10 141 10 141 36 289 c 0,14,15
 57 406 57 406 96 457 c 0,16,17
 125 496 125 496 165 517 c 128,-1,18
 205 538 205 538 252 538 c 0,19,20
 290 538 290 538 316 522 c 0,21,22
 345 502 345 502 362 462 c 0,23,24
 365 455 365 455 367 447 c 2,25,-1
 382 530 l 1,26,-1
 500 530 l 1,27,-1
 500 458 l 1,28,-1
 450 458 l 1,29,-1
 346 -133 l 1,30,-1
 386 -133 l 1,31,-1
 386 -205 l 1,32,-1
 216 -205 l 1,0,-1
197 64 m 0,33,34
 224 64 224 64 246 75 c 0,35,36
 269 88 269 88 288 112 c 0,37,38
 312 144 312 144 323 193 c 2,39,-1
 331 240 l 1,40,-1
 340 293 l 2,41,42
 354 371 354 371 335 417 c 0,43,44
 325 443 325 443 305 456 c 0,45,46
 290 466 290 466 265 466 c 0,47,48
 235 466 235 466 209 452 c 0,49,50
 181 438 181 438 161 411 c 0,51,52
 132 373 132 373 115 277 c 0,53,54
 95 164 95 164 113 121 c 0,55,56
 124 92 124 92 147 77 c 0,57,58
 168 64 168 64 197 64 c 0,33,34
EndSplineSet
EndChar

StartChar: r
Encoding: 114 114 77
Width: 500
GlyphClass: 2
Flags: W
AnchorPoint: "Anclaje-5" 369 0 basechar 0
AnchorPoint: "Anclaje-4" 463 530 basechar 0
AnchorPoint: "Anclaje-3" 232 265 basechar 0
AnchorPoint: "Anclaje-2" 171 265 basechar 0
AnchorPoint: "Anclaje-1" 185 0 basechar 0
AnchorPoint: "Anclaje-0" 279 530 basechar 0
LayerCount: 2
Fore
SplineSet
7 0 m 1,0,-1
 7 72 l 1,1,-1
 75 72 l 1,2,-1
 142 458 l 1,3,-1
 85 458 l 1,4,-1
 85 530 l 1,5,-1
 236 530 l 1,6,-1
 220 437 l 1,7,8
 229 453 229 453 239 466 c 0,9,10
 267 504 267 504 302 523 c 0,11,12
 332 538 332 538 367 538 c 0,13,14
 400 538 400 538 427 521 c 0,15,16
 452 504 452 504 463 476 c 0,17,18
 471 459 471 459 470 440 c 1,19,-1
 395 406 l 1,20,21
 395 416 395 416 391 426 c 0,22,23
 384 444 384 444 368 455 c 0,24,25
 350 466 350 466 326 466 c 0,26,27
 304 466 304 466 284 456 c 0,28,29
 261 443 261 443 242 418 c 0,30,31
 209 375 209 375 196 305 c 2,32,-1
 156 72 l 1,33,-1
 255 72 l 1,34,-1
 255 0 l 1,35,-1
 7 0 l 1,0,-1
EndSplineSet
EndChar

StartChar: s
Encoding: 115 115 78
Width: 500
GlyphClass: 2
Flags: W
AnchorPoint: "Anclaje-5" 369 0 basechar 0
AnchorPoint: "Anclaje-4" 463 530 basechar 0
AnchorPoint: "Anclaje-3" 232 265 basechar 0
AnchorPoint: "Anclaje-2" 234 275 basechar 0
AnchorPoint: "Anclaje-1" 185 0 basechar 0
AnchorPoint: "Anclaje-0" 279 530 basechar 0
LayerCount: 2
Fore
SplineSet
199 -8 m 0,0,1
 129 -8 129 -8 84 20 c 0,2,3
 44 46 44 46 26 90 c 0,4,5
 22 101 22 101 20 110 c 1,6,-1
 97 130 l 2,7,8
 98 127 98 127 99 121 c 2,9,-1
 100 119 l 2,10,11
 111 94 111 94 133 80 c 0,12,13
 157 64 157 64 199 64 c 0,14,15
 244 64 244 64 275 80 c 0,16,17
 293 89 293 89 302 102 c 0,18,19
 311 113 311 113 313 126 c 0,20,21
 316 143 316 143 309 159 c 0,22,23
 299 184 299 184 270 203 c 0,24,25
 253 214 253 214 214 229 c 0,26,27
 168 248 168 248 147 262 c 0,28,29
 100 292 100 292 81 338 c 0,30,31
 66 376 66 376 73 415 c 0,32,33
 78 446 78 446 96 470 c 0,34,35
 116 495 116 495 148 512 c 0,36,37
 197 538 197 538 266 538 c 0,38,39
 336 538 336 538 381 510 c 0,40,41
 421 483 421 483 438 440 c 0,42,43
 442 432 442 432 445 420 c 1,44,-1
 368 400 l 1,45,46
 360 432 360 432 332 450 c 0,47,48
 307 466 307 466 266 466 c 0,49,50
 220 466 220 466 190 450 c 0,51,52
 173 441 173 441 162 428 c 0,53,54
 154 416 154 416 152 404 c 0,55,56
 149 387 149 387 156 371 c 0,57,58
 166 346 166 346 195 327 c 0,59,60
 211 317 211 317 250 301 c 0,61,62
 295 283 295 283 318 268 c 0,63,64
 365 238 365 238 384 192 c 0,65,66
 399 154 399 154 392 115 c 0,67,68
 386 84 386 84 369 60 c 0,69,70
 349 35 349 35 317 18 c 0,71,72
 268 -8 268 -8 199 -8 c 0,0,1
EndSplineSet
EndChar

StartChar: t
Encoding: 116 116 79
Width: 500
GlyphClass: 2
Flags: W
AnchorPoint: "Anclaje-5" 455 131 basechar 0
AnchorPoint: "Anclaje-4" 499 735 basechar 0
AnchorPoint: "Anclaje-3" 250 367 basechar 0
AnchorPoint: "Anclaje-2" 253 382 basechar 0
AnchorPoint: "Anclaje-1" 242 0 basechar 0
AnchorPoint: "Anclaje-0" 315 735 basechar 0
LayerCount: 2
Fore
SplineSet
280 -8 m 0,0,1
 226 -8 226 -8 190 15 c 0,2,3
 155 38 155 38 139 78 c 0,4,5
 118 130 118 130 131 206 c 2,6,-1
 176 458 l 1,7,-1
 73 458 l 1,8,-1
 73 530 l 1,9,-1
 189 530 l 1,10,-1
 225 735 l 1,11,-1
 306 735 l 1,12,-1
 270 530 l 1,13,-1
 423 530 l 1,14,-1
 423 458 l 1,15,-1
 257 458 l 1,16,-1
 210 193 l 2,17,18
 201 141 201 141 214 108 c 0,19,20
 224 85 224 85 241 74 c 0,21,22
 257 64 257 64 280 64 c 0,23,24
 300 64 300 64 317 73 c 0,25,26
 337 84 337 84 354 106.5 c 128,-1,27
 371 129 371 129 382 160 c 1,28,-1
 456 132 l 1,29,30
 441 96 441 96 420 67 c 0,31,32
 391 29 391 29 355 10 c 0,33,34
 321 -8 321 -8 280 -8 c 0,0,1
EndSplineSet
Substitution2: "Single Substitution lookup 31 subtable" t.cv41
Substitution2: "'ss11' Style Set 11 lookup 30 subtable" t.ss11
EndChar

StartChar: u
Encoding: 117 117 80
Width: 500
GlyphClass: 2
Flags: W
AnchorPoint: "Anclaje-6" 333 0 basechar 0
AnchorPoint: "Anclaje-5" 369 0 basechar 0
AnchorPoint: "Anclaje-4" 463 530 basechar 0
AnchorPoint: "Anclaje-3" 232 265 basechar 0
AnchorPoint: "Anclaje-2" 234 275 basechar 0
AnchorPoint: "Anclaje-1" 185 0 basechar 0
AnchorPoint: "Anclaje-0" 279 530 basechar 0
LayerCount: 2
Fore
SplineSet
161 -8 m 0,0,1
 123 -8 123 -8 98 8 c 0,2,3
 68 28 68 28 52 68 c 0,4,5
 25 133 25 133 44 241 c 2,6,-1
 82 458 l 1,7,-1
 43 458 l 1,8,-1
 43 530 l 1,9,-1
 176 530 l 1,10,-1
 123 229 l 2,11,12
 110 157 110 157 128 113 c 0,13,14
 138 87 138 87 158 75 c 0,15,16
 174 64 174 64 199 64 c 0,17,18
 225 64 225 64 247.5 76 c 128,-1,19
 270 88 270 88 289 112 c 0,20,21
 313 145 313 145 323 193 c 2,22,-1
 324 199 l 1,23,-1
 324 201 l 1,24,-1
 369 458 l 1,25,-1
 330 458 l 1,26,-1
 330 530 l 1,27,-1
 463 530 l 1,28,-1
 383 72 l 1,29,-1
 422 72 l 1,30,-1
 422 0 l 1,31,-1
 289 0 l 1,32,-1
 300 66 l 1,33,34
 273 29 273 29 236 10 c 0,35,36
 202 -8 202 -8 161 -8 c 0,0,1
EndSplineSet
EndChar

StartChar: v
Encoding: 118 118 81
Width: 500
GlyphClass: 2
Flags: W
AnchorPoint: "Anclaje-5" 369 0 basechar 0
AnchorPoint: "Anclaje-4" 463 530 basechar 0
AnchorPoint: "Anclaje-3" 232 265 basechar 0
AnchorPoint: "Anclaje-2" 234 275 basechar 0
AnchorPoint: "Anclaje-1" 185 0 basechar 0
AnchorPoint: "Anclaje-0" 279 530 basechar 0
LayerCount: 2
Fore
SplineSet
137 0 m 1,0,1
 65 312 65 312 83 458 c 1,2,-1
 43 458 l 1,3,-1
 43 530 l 1,4,-1
 213 530 l 1,5,-1
 213 458 l 1,6,-1
 164 458 l 1,7,8
 148 331 148 331 196 74 c 1,9,10
 339 332 339 332 369 458 c 1,11,-1
 330 458 l 1,12,-1
 330 530 l 1,13,-1
 500 530 l 1,14,-1
 500 458 l 1,15,-1
 450 458 l 1,16,17
 416 311 416 311 234 0 c 1,18,-1
 137 0 l 1,0,1
EndSplineSet
EndChar

StartChar: w
Encoding: 119 119 82
Width: 500
GlyphClass: 2
Flags: W
AnchorPoint: "Anclaje-5" 369 0 basechar 0
AnchorPoint: "Anclaje-4" 463 530 basechar 0
AnchorPoint: "Anclaje-3" 232 265 basechar 0
AnchorPoint: "Anclaje-2" 234 275 basechar 0
AnchorPoint: "Anclaje-1" 185 0 basechar 0
AnchorPoint: "Anclaje-0" 279 530 basechar 0
LayerCount: 2
Fore
SplineSet
74 0 m 1,0,1
 50 276 50 276 72 398 c 2,2,-1
 83 458 l 1,3,-1
 43 458 l 1,4,-1
 43 530 l 1,5,-1
 213 530 l 1,6,-1
 213 458 l 1,7,-1
 164 458 l 1,8,-1
 153 398 l 2,9,10
 136 304 136 304 120 109 c 1,11,-1
 217 318 l 1,12,-1
 266 318 l 1,13,-1
 287 104 l 1,14,15
 342 301 342 301 359 398 c 2,16,-1
 370 458 l 1,17,-1
 330 458 l 1,18,-1
 330 530 l 1,19,-1
 500 530 l 1,20,-1
 500 458 l 1,21,-1
 451 458 l 1,22,-1
 440 398 l 2,23,24
 418 277 418 277 298 0 c 1,25,-1
 249 0 l 1,26,-1
 226 229 l 1,27,-1
 123 0 l 1,28,-1
 74 0 l 1,0,1
EndSplineSet
EndChar

StartChar: x
Encoding: 120 120 83
Width: 500
GlyphClass: 2
Flags: W
AnchorPoint: "Anclaje-5" 369 0 basechar 0
AnchorPoint: "Anclaje-4" 463 530 basechar 0
AnchorPoint: "Anclaje-3" 232 265 basechar 0
AnchorPoint: "Anclaje-2" 234 275 basechar 0
AnchorPoint: "Anclaje-1" 185 0 basechar 0
AnchorPoint: "Anclaje-0" 279 530 basechar 0
LayerCount: 2
Fore
SplineSet
-35 0 m 1,0,-1
 -35 72 l 1,1,-1
 34 72 l 1,2,3
 51 100 51 100 78 136 c 0,4,5
 90 152 90 152 92 154 c 2,6,-1
 187 270 l 1,7,-1
 134 384 l 2,8,9
 124 404 124 404 116 424 c 0,10,11
 109 442 109 442 104 458 c 1,12,-1
 43 458 l 1,13,-1
 43 530 l 1,14,-1
 213 530 l 1,15,-1
 213 458 l 1,16,-1
 188 458 l 1,17,18
 195 438 195 438 206 414 c 2,19,-1
 242 338 l 1,20,-1
 311 422 l 2,21,22
 327 442 327 442 340 458 c 1,23,-1
 330 458 l 1,24,-1
 330 530 l 1,25,-1
 500 530 l 1,26,-1
 500 458 l 1,27,-1
 431 458 l 1,28,29
 414 430 414 430 386 394 c 1,30,-1
 385 392 l 2,31,32
 374 378 374 378 373 376 c 2,33,-1
 278 261 l 1,34,-1
 331 146 l 2,35,36
 340 127 340 127 349 106 c 0,37,38
 356 88 356 88 361 72 c 1,39,-1
 422 72 l 1,40,-1
 422 0 l 1,41,-1
 252 0 l 1,42,-1
 252 72 l 1,43,-1
 277 72 l 1,44,45
 270 92 270 92 259 116 c 2,46,-1
 223 193 l 1,47,-1
 154 108 l 2,48,49
 138 88 138 88 125 72 c 1,50,-1
 135 72 l 1,51,-1
 135 0 l 1,52,-1
 -35 0 l 1,0,-1
EndSplineSet
EndChar

StartChar: y
Encoding: 121 121 84
Width: 500
GlyphClass: 2
Flags: W
AnchorPoint: "Anclaje-5" 333 -205 basechar 0
AnchorPoint: "Anclaje-4" 463 530 basechar 0
AnchorPoint: "Anclaje-3" 214 162 basechar 0
AnchorPoint: "Anclaje-2" 216 177 basechar 0
AnchorPoint: "Anclaje-1" 149 -205 basechar 0
AnchorPoint: "Anclaje-0" 279 530 basechar 0
LayerCount: 2
Fore
SplineSet
152 -213 m 0,0,1
 85 -213 85 -213 42 -185 c 0,2,3
 4 -161 4 -161 -13 -119 c 0,4,5
 -18 -106 -18 -106 -20 -95 c 1,6,-1
 53 -65 l 1,7,8
 54 -74 54 -74 58 -85 c 0,9,10
 69 -111 69 -111 91 -126 c 0,11,12
 116 -141 116 -141 152 -141 c 0,13,14
 181 -141 181 -141 206 -128 c 0,15,16
 232 -114 232 -114 251 -88 c 0,17,18
 279 -51 279 -51 290 6 c 2,19,-1
 300 66 l 1,20,21
 273 29 273 29 236 10 c 0,22,23
 202 -8 202 -8 161 -8 c 0,24,25
 123 -8 123 -8 98 8 c 0,26,27
 68 28 68 28 52 68 c 0,28,29
 25 133 25 133 44 241 c 2,30,-1
 82 458 l 1,31,-1
 43 458 l 1,32,-1
 43 530 l 1,33,-1
 176 530 l 1,34,-1
 123 229 l 2,35,36
 110 157 110 157 128 113 c 0,37,38
 138 87 138 87 158 75 c 0,39,40
 174 64 174 64 199 64 c 0,41,42
 225 64 225 64 247.5 76 c 128,-1,43
 270 88 270 88 289 112 c 0,44,45
 312 144 312 144 322 191 c 2,46,-1
 324 201 l 1,47,-1
 382 530 l 1,48,-1
 463 530 l 1,49,-1
 369 -6 l 2,50,51
 355 -79 355 -79 318 -130 c 0,52,53
 288 -169 288 -169 247 -191 c 0,54,55
 204 -213 204 -213 152 -213 c 0,0,1
EndSplineSet
Substitution2: "Single Substitution lookup 20 subtable" y.cv49
Substitution2: "'ss11' Style Set 11 lookup 19 subtable" y.ss11
EndChar

StartChar: z
Encoding: 122 122 85
Width: 500
GlyphClass: 2
Flags: W
AnchorPoint: "Anclaje-5" 369 0 basechar 0
AnchorPoint: "Anclaje-4" 463 530 basechar 0
AnchorPoint: "Anclaje-3" 232 265 basechar 0
AnchorPoint: "Anclaje-2" 234 275 basechar 0
AnchorPoint: "Anclaje-1" 185 0 basechar 0
AnchorPoint: "Anclaje-0" 279 530 basechar 0
LayerCount: 2
Fore
SplineSet
2 0 m 1,0,-1
 14 72 l 1,1,-1
 353 458 l 1,2,-1
 164 458 l 1,3,-1
 151 385 l 1,4,-1
 70 385 l 1,5,-1
 82 458 l 1,6,-1
 95 530 l 1,7,-1
 463 530 l 1,8,-1
 450 458 l 1,9,-1
 112 72 l 1,10,-1
 301 72 l 1,11,-1
 314 145 l 1,12,-1
 395 145 l 1,13,-1
 370 0 l 1,14,-1
 2 0 l 1,0,-1
EndSplineSet
EndChar

StartChar: exclamdown
Encoding: 161 161 87
Width: 500
GlyphClass: 2
Flags: W
LayerCount: 2
Fore
SplineSet
250 397 m 256,0,1
 228 397 228 397 211 406 c 0,2,3
 197 415 197 415 189 429 c 0,4,5
 179 445 179 445 180 468 c 0,6,7
 179 490 179 490 189 506 c 0,8,9
 197 520 197 520 211 529 c 0,10,11
 228 538 228 538 250 538 c 256,12,13
 272 538 272 538 289 529 c 0,14,15
 303 520 303 520 311 506 c 0,16,17
 320 491 320 491 321 468 c 0,18,19
 320 444 320 444 311 429 c 0,20,21
 303 415 303 415 289 406 c 0,22,23
 272 397 272 397 250 397 c 256,0,1
210 -205 m 1,24,-1
 210 270 l 1,25,-1
 290 270 l 1,26,-1
 290 -205 l 1,27,-1
 210 -205 l 1,24,-1
EndSplineSet
Validated: 33
EndChar

StartChar: periodcentered
Encoding: 183 183 90
Width: 500
GlyphClass: 2
Flags: W
LayerCount: 2
Fore
SplineSet
250 287 m 256,0,1
 225 287 225 287 207 297 c 0,2,3
 192 306 192 306 182 322 c 0,4,5
 172 340 172 340 172 365 c 128,-1,6
 172 390 172 390 182 408 c 0,7,8
 192 424 192 424 207 433 c 0,9,10
 225 443 225 443 250 443 c 256,11,12
 275 443 275 443 293 433 c 0,13,14
 308 424 308 424 318 408 c 0,15,16
 328 390 328 390 328 365 c 128,-1,17
 328 340 328 340 318 322 c 0,18,19
 308 306 308 306 293 297 c 0,20,21
 275 287 275 287 250 287 c 256,0,1
EndSplineSet
Validated: 1
EndChar

StartChar: questiondown
Encoding: 191 191 92
Width: 500
GlyphClass: 2
Flags: W
LayerCount: 2
Fore
SplineSet
250 397 m 256,0,1
 228 397 228 397 211 406 c 0,2,3
 197 415 197 415 189 429 c 0,4,5
 179 445 179 445 180 468 c 0,6,7
 179 490 179 490 189 506 c 0,8,9
 197 520 197 520 211 529 c 0,10,11
 228 538 228 538 250 538 c 256,12,13
 272 538 272 538 289 529 c 0,14,15
 303 520 303 520 311 506 c 0,16,17
 320 491 320 491 321 468 c 0,18,19
 320 444 320 444 311 429 c 0,20,21
 303 415 303 415 289 406 c 0,22,23
 272 397 272 397 250 397 c 256,0,1
253 -213 m 0,24,25
 192 -213 192 -213 149 -188 c 0,26,27
 112 -166 112 -166 90 -129 c 0,28,29
 66 -87 66 -87 66 -35 c 0,30,31
 66 24 66 24 99 81 c 0,32,33
 114 107 114 107 149 150 c 0,34,35
 175 184 175 184 185 202 c 0,36,37
 210 244 210 244 210 310 c 1,38,-1
 290 309 l 1,39,40
 290 221 290 221 258 166 c 0,41,42
 244 141 244 141 210 100 c 0,43,44
 180 62 180 62 170 43 c 0,45,46
 146 2 146 2 146 -37 c 0,47,48
 146 -68 146 -68 160 -93 c 0,49,50
 172 -114 172 -114 194 -127 c 0,51,52
 219 -141 219 -141 253 -141 c 0,53,54
 290 -141 290 -141 316 -126 c 0,55,56
 337 -114 337 -114 348.5 -94 c 128,-1,57
 360 -74 360 -74 360 -51 c 0,58,59
 360 -49 360 -49 360 -45 c 0,60,61
 360 -43 360 -43 360 -41 c 2,62,-1
 439 -50 l 2,63,64
 439 -54 439 -54 439 -57 c 0,65,66
 439 -97 439 -97 419 -130 c 0,67,68
 399 -166 399 -166 362 -187 c 0,69,70
 318 -213 318 -213 253 -213 c 0,24,25
EndSplineSet
Validated: 33
EndChar

StartChar: dotlessi
Encoding: 305 305 107
Width: 500
GlyphClass: 2
Flags: W
AnchorPoint: "Anclaje-5" 434 0 basechar 0
AnchorPoint: "Anclaje-4" 434 530 basechar 0
AnchorPoint: "Anclaje-3" 250 265 basechar 0
AnchorPoint: "Anclaje-2" 250 275 basechar 0
AnchorPoint: "Anclaje-1" 250 0 basechar 0
AnchorPoint: "Anclaje-0" 250 530 basechar 0
LayerCount: 2
Fore
SplineSet
75 0 m 1,0,-1
 75 72 l 1,1,-1
 217 72 l 1,2,-1
 217 458 l 1,3,-1
 89 458 l 1,4,-1
 89 530 l 1,5,-1
 297 530 l 1,6,-1
 297 72 l 1,7,-1
 425 72 l 1,8,-1
 425 0 l 1,9,-1
 75 0 l 1,0,-1
EndSplineSet
Validated: 513
Substitution2: "'cv04' Character Variants 04 lookup 10 subtable" dotlessi.cv04
Substitution2: "'ss11' Style Set 11 lookup 9 subtable" dotlessi.ss11
Substitution2: "'ss07' Style Set 7 lookup 8 subtable" dotlessi.ss07
Substitution2: "'ss10' Style Set 10 lookup 7 subtable" dotlessi.ss10
EndChar

StartChar: uni0261
Encoding: 609 609 108
Width: 500
GlyphClass: 2
Flags: W
AnchorPoint: "Anclaje-5" 434 -205 basechar 0
AnchorPoint: "Anclaje-4" 434 530 basechar 0
AnchorPoint: "Anclaje-3" 250 162 basechar 0
AnchorPoint: "Anclaje-2" 250 177 basechar 0
AnchorPoint: "Anclaje-1" 250 -205 basechar 0
AnchorPoint: "Anclaje-0" 250 530 basechar 0
LayerCount: 2
Fore
SplineSet
238 -213 m 256,0,1
 182 -213 182 -213 140.5 -189 c 128,-1,2
 99 -165 99 -165 74 -122 c 0,3,4
 67 -109 67 -109 61 -95 c 1,5,-1
 133 -63 l 1,6,7
 136 -73 136 -73 143 -86 c 0,8,9
 159 -114 159 -114 184 -128 c 0,10,11
 207 -141 207 -141 238 -141 c 0,12,13
 268 -141 268 -141 291 -128 c 0,14,15
 315 -114 315 -114 331 -86 c 0,16,17
 354 -46 354 -46 354 15 c 2,18,-1
 354 76 l 2,19,20
 352 72 352 72 349 67 c 0,21,22
 327 28 327 28 293 9 c 0,23,24
 264 -8 264 -8 223 -8 c 0,25,26
 179 -8 179 -8 144 12 c 0,27,28
 107 33 107 33 83 74 c 0,29,30
 50 133 50 133 50 220 c 2,31,-1
 50 310 l 2,32,33
 50 397 50 397 83 456 c 0,34,35
 107 497 107 497 144 518 c 0,36,37
 179 538 179 538 223 538 c 0,38,39
 264 538 264 538 293 521 c 0,40,41
 327 502 327 502 349 463 c 0,42,43
 352 458 352 458 354 454 c 2,44,-1
 354 530 l 1,45,-1
 479 530 l 1,46,-1
 479 458 l 1,47,-1
 434 458 l 1,48,-1
 434 15 l 2,49,50
 434 -66 434 -66 402 -122 c 0,51,52
 377 -165 377 -165 336 -189 c 0,53,54
 294 -213 294 -213 238 -213 c 256,0,1
249 64 m 0,55,56
 274 64 274 64 294 75 c 0,57,58
 316 88 316 88 330 113 c 0,59,60
 354 154 354 154 354 220 c 2,61,-1
 354 310 l 2,62,63
 354 376 354 376 330 417 c 0,64,65
 316 442 316 442 294 455 c 0,66,67
 274 466 274 466 249 466 c 0,68,69
 218 466 218 466 194 452 c 0,70,71
 169 437 169 437 153 409 c 0,72,73
 130 370 130 370 130 310 c 2,74,-1
 130 220 l 2,75,76
 130 160 130 160 153 121 c 0,77,78
 169 93 169 93 194 78 c 0,79,80
 218 64 218 64 249 64 c 0,55,56
EndSplineSet
Validated: 1
EndChar

StartChar: uni02BB
Encoding: 699 699 109
Width: 500
GlyphClass: 2
Flags: W
LayerCount: 2
Fore
SplineSet
250 442 m 256,0,1
 225 442 225 442 208 453 c 0,2,3
 192 461 192 461 183 477 c 0,4,5
 173 495 173 495 173 520 c 0,6,7
 173 629 173 629 236 738 c 0,8,9
 251 765 251 765 271 792 c 1,10,-1
 333 751 l 1,11,12
 317 729 317 729 303 705 c 0,13,14
 272 651 272 651 259 596 c 1,15,16
 278 595 278 595 292 587 c 0,17,18
 308 578 308 578 317 562 c 0,19,20
 327 544 327 544 327 519.5 c 128,-1,21
 327 495 327 495 317 477 c 0,22,23
 308 461 308 461 292 453 c 0,24,25
 275 442 275 442 250 442 c 256,0,1
EndSplineSet
Validated: 1
EndChar

StartChar: uni02BC
Encoding: 700 700 110
Width: 500
GlyphClass: 2
Flags: W
LayerCount: 2
Fore
SplineSet
229 430 m 1,0,-1
 167 471 l 1,1,2
 183 493 183 493 197 517 c 0,3,4
 228 572 228 572 241 626 c 1,5,6
 222 627 222 627 208 636 c 0,7,8
 192 645 192 645 183 660 c 0,9,10
 173 678 173 678 173 702.5 c 128,-1,11
 173 727 173 727 183 745 c 0,12,13
 192 761 192 761 208 770 c 0,14,15
 225 780 225 780 250 780 c 256,16,17
 275 780 275 780 292 770 c 0,18,19
 308 761 308 761 317 745 c 0,20,21
 327 727 327 727 327 703 c 0,22,23
 327 593 327 593 264 484 c 0,24,25
 249 457 249 457 229 430 c 1,0,-1
EndSplineSet
Validated: 1
EndChar

StartChar: acutecomb
Encoding: 769 769 111
Width: 0
GlyphClass: 4
Flags: W
AnchorPoint: "Anclaje-8" -250 743 basemark 0
AnchorPoint: "Anclaje-8" -250 530 mark 0
AnchorPoint: "Anclaje-0" -250 530 mark 0
LayerCount: 2
Fore
SplineSet
-262 563 m 1,0,-1
 -317 606 l 1,1,-1
 -183 770 l 1,2,-1
 -117 718 l 1,3,-1
 -262 563 l 1,0,-1
EndSplineSet
Validated: 1
EndChar

StartChar: uni0302
Encoding: 770 770 112
Width: 0
GlyphClass: 4
Flags: W
AnchorPoint: "Anclaje-8" -250 743 basemark 0
AnchorPoint: "Anclaje-8" -250 530 mark 0
AnchorPoint: "Anclaje-0" -250 530 mark 0
LayerCount: 2
Fore
SplineSet
-355 567 m 1,0,-1
 -424 616 l 1,1,-1
 -294 767 l 1,2,-1
 -206 767 l 1,3,-1
 -76 616 l 1,4,-1
 -145 567 l 1,5,-1
 -250 708 l 1,6,-1
 -355 567 l 1,0,-1
EndSplineSet
Validated: 1
EndChar

StartChar: tildecomb
Encoding: 771 771 113
Width: 0
GlyphClass: 4
Flags: W
AnchorPoint: "Anclaje-8" -250 743 basemark 0
AnchorPoint: "Anclaje-8" -250 530 mark 0
AnchorPoint: "Anclaje-0" -250 530 mark 0
LayerCount: 2
Fore
SplineSet
-192 585 m 256,0,1
 -210 585 -210 585 -227 595 c 0,2,3
 -250 608 -250 608 -281 656 c 0,4,5
 -299 684 -299 684 -308 692 c 1,6,7
 -319 683 -319 683 -333 659 c 0,8,9
 -348 633 -348 633 -367 588 c 1,10,-1
 -433 613 l 1,11,12
 -415 658 -415 658 -397 689 c 0,13,14
 -371 734 -371 734 -344 750 c 0,15,16
 -326 759 -326 759 -308 759 c 256,17,18
 -290 759 -290 759 -273 750 c 0,19,20
 -250 737 -250 737 -219 688 c 0,21,22
 -201 661 -201 661 -192 652 c 1,23,24
 -181 661 -181 661 -167 685 c 0,25,26
 -152 712 -152 712 -133 756 c 1,27,-1
 -67 732 l 1,28,29
 -85 687 -85 687 -103 656 c 0,30,31
 -129 611 -129 611 -156 595 c 0,32,33
 -174 585 -174 585 -192 585 c 256,0,1
EndSplineSet
Validated: 1
EndChar

StartChar: uni0307
Encoding: 775 775 114
Width: 0
GlyphClass: 4
Flags: W
AnchorPoint: "Anclaje-8" -250 743 basemark 0
AnchorPoint: "Anclaje-8" -250 530 mark 0
AnchorPoint: "Anclaje-0" -250 530 mark 0
LayerCount: 2
Fore
SplineSet
-250 623 m 256,0,1
 -270 623 -270 623 -283.5 630.5 c 128,-1,2
 -297 638 -297 638 -304 651 c 0,3,4
 -313 665 -313 665 -312 685 c 0,5,6
 -313 705 -313 705 -304 719 c 0,7,8
 -297 732 -297 732 -283.5 740 c 128,-1,9
 -270 748 -270 748 -250 748 c 256,10,11
 -230 748 -230 748 -216.5 740 c 128,-1,12
 -203 732 -203 732 -196 719 c 0,13,14
 -188 706 -188 706 -187 685 c 0,15,16
 -188 664 -188 664 -196 651 c 0,17,18
 -203 638 -203 638 -216.5 630.5 c 128,-1,19
 -230 623 -230 623 -250 623 c 256,0,1
EndSplineSet
Validated: 33
EndChar

StartChar: uni030A
Encoding: 778 778 116
Width: 0
GlyphClass: 4
Flags: W
AnchorPoint: "Anclaje-8" -250 743 basemark 0
AnchorPoint: "Anclaje-8" -250 530 mark 0
AnchorPoint: "Anclaje-0" -250 530 mark 0
LayerCount: 2
Fore
SplineSet
-250 565 m 256,0,1
 -281 565 -281 565 -303 577 c 0,2,3
 -322 589 -322 589 -333 608 c 0,4,5
 -346 630 -346 630 -346 661 c 128,-1,6
 -346 692 -346 692 -333 713 c 0,7,8
 -322 732 -322 732 -303 744 c 0,9,10
 -281 757 -281 757 -250 757 c 256,11,12
 -219 757 -219 757 -197 744 c 0,13,14
 -178 732 -178 732 -167 713 c 0,15,16
 -154 692 -154 692 -154 661 c 128,-1,17
 -154 630 -154 630 -167 608 c 0,18,19
 -178 589 -178 589 -197 577 c 0,20,21
 -219 565 -219 565 -250 565 c 256,0,1
-250 624 m 256,22,23
 -233 624 -233 624 -223 634 c 128,-1,24
 -213 644 -213 644 -213 661 c 128,-1,25
 -213 678 -213 678 -223 688 c 128,-1,26
 -233 698 -233 698 -250 698 c 256,27,28
 -267 698 -267 698 -277 688 c 128,-1,29
 -287 678 -287 678 -287 661 c 128,-1,30
 -287 644 -287 644 -277 634 c 128,-1,31
 -267 624 -267 624 -250 624 c 256,22,23
EndSplineSet
Validated: 1
EndChar

StartChar: emdash
Encoding: 8212 8212 117
Width: 500
GlyphClass: 2
Flags: W
LayerCount: 2
Fore
SplineSet
0 329 m 1,0,-1
 0 401 l 1,1,-1
 500 401 l 1,2,-1
 500 329 l 1,3,-1
 0 329 l 1,0,-1
EndSplineSet
Validated: 1
EndChar

StartChar: guilsinglleft
Encoding: 8249 8249 123
Width: 500
GlyphClass: 2
Flags: W
LayerCount: 2
Fore
SplineSet
295 86 m 1,0,1
 274 149 274 149 240 208 c 0,2,3
 194 287 194 287 130 329 c 1,4,-1
 130 401 l 1,5,6
 194 443 194 443 240 522 c 0,7,8
 274 581 274 581 295 644 c 1,9,-1
 370 619 l 1,10,11
 351 574 351 574 327 532 c 0,12,13
 266 425 266 425 186 365 c 1,14,15
 266 305 266 305 327 198 c 0,16,17
 351 156 351 156 370 111 c 1,18,-1
 295 86 l 1,0,1
EndSplineSet
Validated: 1
EndChar

StartChar: guilsinglright
Encoding: 8250 8250 124
Width: 500
GlyphClass: 2
Flags: W
LayerCount: 2
Fore
SplineSet
205 86 m 1,0,-1
 130 111 l 1,1,2
 149 156 149 156 173 198 c 0,3,4
 234 305 234 305 314 365 c 1,5,6
 234 425 234 425 173 532 c 0,7,8
 149 574 149 574 130 619 c 1,9,-1
 205 644 l 1,10,11
 226 581 226 581 260 522 c 0,12,13
 306 443 306 443 370 401 c 1,14,-1
 370 329 l 1,15,16
 306 287 306 287 260 208 c 0,17,18
 226 149 226 149 205 86 c 1,0,-1
EndSplineSet
Validated: 1
EndChar

StartChar: arrowright
Encoding: 8594 8594 125
Width: 500
GlyphClass: 2
Flags: W
AnchorPoint: "Anclaje-3" 206 365 basechar 0
LayerCount: 2
Fore
SplineSet
341 215 m 1,0,-1
 309 246 l 1,1,-1
 384 329 l 1,2,-1
 33 329 l 1,3,-1
 33 401 l 1,4,-1
 384 401 l 1,5,-1
 309 484 l 1,6,-1
 341 515 l 1,7,-1
 491 365 l 1,8,-1
 341 215 l 1,0,-1
EndSplineSet
Validated: 1
EndChar

StartChar: at.ss11
Encoding: 65538 -1 128
Width: 500
GlyphClass: 2
Flags: W
LayerCount: 2
Fore
SplineSet
250 -176 m 2,0,1
 195 -176 195 -176 154 -153 c 0,2,3
 117 -131 117 -131 94 -91 c 0,4,5
 66 -43 66 -43 66 27 c 2,6,-1
 66 703 l 2,7,8
 66 773 66 773 94 821 c 0,9,10
 117 861 117 861 155 883 c 0,11,12
 195 906 195 906 250 906 c 256,13,14
 305 906 305 906 345 883 c 0,15,16
 383 861 383 861 406 821 c 0,17,18
 434 773 434 773 434 703 c 2,19,-1
 434 177 l 2,20,21
 434 124 434 124 414 88 c 0,22,23
 399 63 399 63 376.5 50 c 128,-1,24
 354 37 354 37 324 37 c 0,25,26
 292 37 292 37 267.5 51.5 c 128,-1,27
 243 66 243 66 227 92 c 0,28,29
 207 127 207 127 207 177 c 2,30,-1
 207 499 l 2,31,32
 207 550 207 550 227 584 c 0,33,34
 243 611 243 611 267.5 625 c 128,-1,35
 292 639 292 639 325 640 c 2,36,-1
 354 640 l 1,37,-1
 354 703 l 2,38,39
 354 752 354 752 335 785 c 0,40,41
 321 809 321 809 299 822 c 0,42,43
 278 834 278 834 250 834 c 256,44,45
 222 834 222 834 201 822 c 0,46,47
 179 809 179 809 165 785 c 0,48,49
 146 752 146 752 146 703 c 2,50,-1
 146 27 l 2,51,52
 146 -22 146 -22 165 -55 c 0,53,54
 179 -79 179 -79 200.5 -91.5 c 128,-1,55
 222 -104 222 -104 250 -104 c 2,56,-1
 398 -104 l 1,57,-1
 398 -176 l 1,58,-1
 250 -176 l 2,0,1
324 109 m 0,59,60
 332 109 332 109 338 115 c 0,61,62
 354 131 354 131 354 177 c 2,63,-1
 354 568 l 1,64,-1
 325 568 l 2,65,66
 313 568 313 568 305 559 c 0,67,68
 287 542 287 542 287 499 c 2,69,-1
 287 177 l 2,70,71
 287 135 287 135 305 118 c 0,72,73
 313 109 313 109 324 109 c 0,59,60
EndSplineSet
Validated: 1
EndChar

StartChar: glyph3483
Encoding: 65539 -1 129
Width: 0
GlyphClass: 2
Flags: W
LayerCount: 2
Fore
SplineSet
248 -4 m 256,0,1
 204 -4 204 -4 174 13 c 0,2,3
 149 27 149 27 136 50 c 0,4,5
 122 74 122 74 122 107 c 2,6,-1
 122 297 l 2,7,8
 122 330 122 330 136 354 c 0,9,10
 149 377 149 377 174 391 c 0,11,12
 204 409 204 409 248 409 c 256,13,14
 292 409 292 409 322 391 c 0,15,16
 346 377 346 377 360 353 c 0,17,18
 369 337 369 337 372 319 c 1,19,-1
 308 304 l 1,20,21
 306 320 306 320 294 333 c 0,22,23
 277 349 277 349 248 349 c 0,24,25
 218 349 218 349 202 332 c 0,26,27
 189 319 189 319 188 297 c 2,28,-1
 188 107 l 2,29,30
 189 85 189 85 202 72 c 0,31,32
 218 56 218 56 248 56 c 0,33,34
 277 56 277 56 294 72 c 0,35,36
 306 84 306 84 308 100 c 1,37,-1
 372 85 l 1,38,39
 369 68 369 68 360 51 c 0,40,41
 346 27 346 27 322 13 c 0,42,43
 292 -4 292 -4 248 -4 c 256,0,1
EndSplineSet
Validated: 1
EndChar

StartChar: glyph3487
Encoding: 65540 -1 130
Width: 500
GlyphClass: 2
Flags: W
LayerCount: 2
Fore
SplineSet
250 -5 m 256,0,1
 179 -5 179 -5 128 25 c 0,2,3
 83 51 83 51 56 97 c 0,4,5
 26 150 26 150 26 223 c 2,6,-1
 26 507 l 2,7,8
 26 580 26 580 56 633 c 0,9,10
 83 679 83 679 128 705 c 0,11,12
 179 735 179 735 250 735 c 256,13,14
 321 735 321 735 372 705 c 0,15,16
 417 679 417 679 444 633 c 0,17,18
 474 580 474 580 474 507 c 2,19,-1
 474 223 l 2,20,21
 474 150 474 150 444 97 c 0,22,23
 417 51 417 51 372 25 c 0,24,25
 321 -5 321 -5 250 -5 c 256,0,1
250 49 m 256,26,27
 301 49 301 49 337 70 c 0,28,29
 371 89 371 89 391 124 c 0,30,31
 415 165 415 165 415 223 c 2,32,-1
 415 507 l 2,33,34
 415 565 415 565 391 606 c 0,35,36
 371 641 371 641 337 660 c 0,37,38
 301 681 301 681 250 681 c 256,39,40
 199 681 199 681 163 660 c 0,41,42
 129 641 129 641 109 606 c 0,43,44
 85 565 85 565 85 507 c 2,45,-1
 85 223 l 2,46,47
 85 165 85 165 109 124 c 0,48,49
 129 89 129 89 163 70 c 0,50,51
 199 49 199 49 250 49 c 256,26,27
EndSplineSet
Validated: 1
EndChar
